<svg width="1259" height="142" viewBox="0 0 1259 142" fill="none" xmlns="http://www.w3.org/2000/svg">
<mask id="path-1-outside-1_27_4" maskUnits="userSpaceOnUse" x="-3" y="-3" width="1265" height="148" fill="black">
<rect fill="white" x="-3" y="-3" width="1265" height="148"/>
<path d="M0.890166 140V2.06772H38.3366V109.827H94.1022V140H0.890166ZM109.239 140V2.06772H208.647V32.2404H146.686V55.9475H203.529V86.1202H146.686V109.827H208.378V140H109.239ZM227.219 140V2.06772H326.627V32.2404H264.665V55.9475H321.509V86.1202H264.665V109.827H326.358V140H227.219ZM341.427 32.2404V2.06772H461.31V32.2404H419.822V140H382.915V32.2404H341.427Z"/>
<path d="M475.403 140V2.06772H534.94C545.177 2.06772 554.135 4.08822 561.812 8.1292C569.49 12.1702 575.462 17.85 579.728 25.1687C583.993 32.4874 586.126 41.0408 586.126 50.8289C586.126 60.7069 583.926 69.2603 579.525 76.4892C575.17 83.7181 569.041 89.2856 561.139 93.1919C553.282 97.0982 544.1 99.0514 533.593 99.0514H498.032V69.9563H526.05C530.45 69.9563 534.199 69.193 537.297 67.6664C540.44 66.0949 542.842 63.8723 544.504 60.9987C546.21 58.1252 547.063 54.7352 547.063 50.8289C547.063 46.8777 546.21 43.5103 544.504 40.7265C542.842 37.8978 540.44 35.7426 537.297 34.2609C534.199 32.7343 530.45 31.971 526.05 31.971H512.849V140H475.403ZM618.47 140H578.061L623.589 2.06772H674.775L720.303 140H679.893L649.721 40.053H648.643L618.47 140ZM610.927 85.5814H686.898V113.599H610.927V85.5814ZM852.932 2.06772V140H821.682L771.843 67.5317H771.035V140H733.588V2.06772H765.377L814.408 74.2667H815.485V2.06772H852.932ZM923.716 140H870.645V2.06772H923.178C937.366 2.06772 949.624 4.82906 959.951 10.3517C970.322 15.8295 978.315 23.7319 983.927 34.0589C989.584 44.3409 992.413 56.6659 992.413 71.0339C992.413 85.4018 989.607 97.7493 983.994 108.076C978.382 118.358 970.435 126.261 960.153 131.783C949.87 137.261 937.725 140 923.716 140ZM908.091 108.211H922.369C929.194 108.211 935.009 107.111 939.813 104.911C944.662 102.711 948.344 98.9167 950.858 93.5287C953.418 88.1407 954.697 80.6424 954.697 71.0339C954.697 61.4253 953.395 53.927 950.791 48.539C948.232 43.1511 944.46 39.357 939.476 37.1569C934.537 34.9568 928.476 33.8568 921.292 33.8568H908.091V108.211ZM1036.86 140H996.454L1041.98 2.06772H1093.17L1138.7 140H1098.29L1068.11 40.053H1067.04L1036.86 140ZM1029.32 85.5814H1105.29V113.599H1029.32V85.5814ZM1220.96 45.1716C1220.61 40.6816 1218.92 37.1794 1215.91 34.665C1212.95 32.1506 1208.44 30.8934 1202.38 30.8934C1198.51 30.8934 1195.35 31.3649 1192.88 32.3078C1190.45 33.2058 1188.66 34.4405 1187.49 36.012C1186.32 37.5835 1185.72 39.3795 1185.67 41.4C1185.58 43.0613 1185.88 44.5654 1186.55 45.9124C1187.27 47.2145 1188.39 48.4043 1189.92 49.4819C1191.44 50.5146 1193.4 51.4575 1195.78 52.3106C1198.16 53.1637 1200.98 53.927 1204.26 54.6005L1215.58 57.0251C1223.21 58.6415 1229.74 60.7742 1235.18 63.4233C1240.61 66.0724 1245.05 69.193 1248.51 72.785C1251.97 76.332 1254.5 80.3281 1256.12 84.7732C1257.78 89.2183 1258.64 94.0675 1258.68 99.3208C1258.64 108.391 1256.37 116.068 1251.88 122.354C1247.39 128.64 1240.97 133.422 1232.62 136.7C1224.31 139.978 1214.32 141.616 1202.65 141.616C1190.66 141.616 1180.2 139.843 1171.26 136.296C1162.37 132.749 1155.46 127.293 1150.52 119.93C1145.62 112.521 1143.15 103.047 1143.11 91.5082H1178.67C1178.89 95.7288 1179.95 99.2759 1181.83 102.149C1183.72 105.023 1186.37 107.201 1189.78 108.682C1193.24 110.164 1197.35 110.905 1202.11 110.905C1206.1 110.905 1209.45 110.411 1212.14 109.423C1214.84 108.435 1216.88 107.066 1218.27 105.315C1219.66 103.564 1220.38 101.566 1220.43 99.3208C1220.38 97.2105 1219.68 95.3696 1218.34 93.7981C1217.04 92.1817 1214.88 90.7449 1211.87 89.4877C1208.86 88.1856 1204.8 86.9733 1199.68 85.8508L1185.94 82.8874C1173.73 80.2383 1164.1 75.8157 1157.05 69.6195C1150.05 63.3784 1146.57 54.8699 1146.61 44.094C1146.57 35.3385 1148.9 27.6831 1153.61 21.1277C1158.37 14.5274 1164.95 9.38639 1173.35 5.70461C1181.79 2.02282 1191.47 0.181929 1202.38 0.181929C1213.51 0.181929 1223.14 2.04527 1231.27 5.77196C1239.4 9.49865 1245.66 14.7519 1250.06 21.5318C1254.5 28.2668 1256.75 36.1467 1256.79 45.1716H1220.96Z"/>
</mask>
<path d="M0.890166 140V2.06772H38.3366V109.827H94.1022V140H0.890166ZM109.239 140V2.06772H208.647V32.2404H146.686V55.9475H203.529V86.1202H146.686V109.827H208.378V140H109.239ZM227.219 140V2.06772H326.627V32.2404H264.665V55.9475H321.509V86.1202H264.665V109.827H326.358V140H227.219ZM341.427 32.2404V2.06772H461.31V32.2404H419.822V140H382.915V32.2404H341.427Z" fill="black"/>
<path d="M475.403 140V2.06772H534.94C545.177 2.06772 554.135 4.08822 561.812 8.1292C569.49 12.1702 575.462 17.85 579.728 25.1687C583.993 32.4874 586.126 41.0408 586.126 50.8289C586.126 60.7069 583.926 69.2603 579.525 76.4892C575.17 83.7181 569.041 89.2856 561.139 93.1919C553.282 97.0982 544.1 99.0514 533.593 99.0514H498.032V69.9563H526.05C530.45 69.9563 534.199 69.193 537.297 67.6664C540.44 66.0949 542.842 63.8723 544.504 60.9987C546.21 58.1252 547.063 54.7352 547.063 50.8289C547.063 46.8777 546.21 43.5103 544.504 40.7265C542.842 37.8978 540.44 35.7426 537.297 34.2609C534.199 32.7343 530.45 31.971 526.05 31.971H512.849V140H475.403ZM618.47 140H578.061L623.589 2.06772H674.775L720.303 140H679.893L649.721 40.053H648.643L618.47 140ZM610.927 85.5814H686.898V113.599H610.927V85.5814ZM852.932 2.06772V140H821.682L771.843 67.5317H771.035V140H733.588V2.06772H765.377L814.408 74.2667H815.485V2.06772H852.932ZM923.716 140H870.645V2.06772H923.178C937.366 2.06772 949.624 4.82906 959.951 10.3517C970.322 15.8295 978.315 23.7319 983.927 34.0589C989.584 44.3409 992.413 56.6659 992.413 71.0339C992.413 85.4018 989.607 97.7493 983.994 108.076C978.382 118.358 970.435 126.261 960.153 131.783C949.87 137.261 937.725 140 923.716 140ZM908.091 108.211H922.369C929.194 108.211 935.009 107.111 939.813 104.911C944.662 102.711 948.344 98.9167 950.858 93.5287C953.418 88.1407 954.697 80.6424 954.697 71.0339C954.697 61.4253 953.395 53.927 950.791 48.539C948.232 43.1511 944.46 39.357 939.476 37.1569C934.537 34.9568 928.476 33.8568 921.292 33.8568H908.091V108.211ZM1036.86 140H996.454L1041.98 2.06772H1093.17L1138.7 140H1098.29L1068.11 40.053H1067.04L1036.86 140ZM1029.32 85.5814H1105.29V113.599H1029.32V85.5814ZM1220.96 45.1716C1220.61 40.6816 1218.92 37.1794 1215.91 34.665C1212.95 32.1506 1208.44 30.8934 1202.38 30.8934C1198.51 30.8934 1195.35 31.3649 1192.88 32.3078C1190.45 33.2058 1188.66 34.4405 1187.49 36.012C1186.32 37.5835 1185.72 39.3795 1185.67 41.4C1185.58 43.0613 1185.88 44.5654 1186.55 45.9124C1187.27 47.2145 1188.39 48.4043 1189.92 49.4819C1191.44 50.5146 1193.4 51.4575 1195.78 52.3106C1198.16 53.1637 1200.98 53.927 1204.26 54.6005L1215.58 57.0251C1223.21 58.6415 1229.74 60.7742 1235.18 63.4233C1240.61 66.0724 1245.05 69.193 1248.51 72.785C1251.97 76.332 1254.5 80.3281 1256.12 84.7732C1257.78 89.2183 1258.64 94.0675 1258.68 99.3208C1258.64 108.391 1256.37 116.068 1251.88 122.354C1247.39 128.64 1240.97 133.422 1232.62 136.7C1224.31 139.978 1214.32 141.616 1202.65 141.616C1190.66 141.616 1180.2 139.843 1171.26 136.296C1162.37 132.749 1155.46 127.293 1150.52 119.93C1145.62 112.521 1143.15 103.047 1143.11 91.5082H1178.67C1178.89 95.7288 1179.95 99.2759 1181.83 102.149C1183.72 105.023 1186.37 107.201 1189.78 108.682C1193.24 110.164 1197.35 110.905 1202.11 110.905C1206.1 110.905 1209.45 110.411 1212.14 109.423C1214.84 108.435 1216.88 107.066 1218.27 105.315C1219.66 103.564 1220.38 101.566 1220.43 99.3208C1220.38 97.2105 1219.68 95.3696 1218.34 93.7981C1217.04 92.1817 1214.88 90.7449 1211.87 89.4877C1208.86 88.1856 1204.8 86.9733 1199.68 85.8508L1185.94 82.8874C1173.73 80.2383 1164.1 75.8157 1157.05 69.6195C1150.05 63.3784 1146.57 54.8699 1146.61 44.094C1146.57 35.3385 1148.9 27.6831 1153.61 21.1277C1158.37 14.5274 1164.95 9.38639 1173.35 5.70461C1181.79 2.02282 1191.47 0.181929 1202.38 0.181929C1213.51 0.181929 1223.14 2.04527 1231.27 5.77196C1239.4 9.49865 1245.66 14.7519 1250.06 21.5318C1254.5 28.2668 1256.75 36.1467 1256.79 45.1716H1220.96Z" fill="#A41034"/>
<path d="M0.890166 140H-2.10983V143H0.890166V140ZM0.890166 2.06772V-0.932277H-2.10983V2.06772H0.890166ZM38.3366 2.06772H41.3366V-0.932277H38.3366V2.06772ZM38.3366 109.827H35.3366V112.827H38.3366V109.827ZM94.1022 109.827H97.1022V106.827H94.1022V109.827ZM94.1022 140V143H97.1022V140H94.1022ZM3.89017 140V2.06772H-2.10983V140H3.89017ZM0.890166 5.06772H38.3366V-0.932277H0.890166V5.06772ZM35.3366 2.06772V109.827H41.3366V2.06772H35.3366ZM38.3366 112.827H94.1022V106.827H38.3366V112.827ZM91.1022 109.827V140H97.1022V109.827H91.1022ZM94.1022 137H0.890166V143H94.1022V137ZM109.239 140H106.239V143H109.239V140ZM109.239 2.06772V-0.932277H106.239V2.06772H109.239ZM208.647 2.06772H211.647V-0.932277H208.647V2.06772ZM208.647 32.2404V35.2404H211.647V32.2404H208.647ZM146.686 32.2404V29.2404H143.686V32.2404H146.686ZM146.686 55.9475H143.686V58.9475H146.686V55.9475ZM203.529 55.9475H206.529V52.9475H203.529V55.9475ZM203.529 86.1202V89.1202H206.529V86.1202H203.529ZM146.686 86.1202V83.1202H143.686V86.1202H146.686ZM146.686 109.827H143.686V112.827H146.686V109.827ZM208.378 109.827H211.378V106.827H208.378V109.827ZM208.378 140V143H211.378V140H208.378ZM112.239 140V2.06772H106.239V140H112.239ZM109.239 5.06772H208.647V-0.932277H109.239V5.06772ZM205.647 2.06772V32.2404H211.647V2.06772H205.647ZM208.647 29.2404H146.686V35.2404H208.647V29.2404ZM143.686 32.2404V55.9475H149.686V32.2404H143.686ZM146.686 58.9475H203.529V52.9475H146.686V58.9475ZM200.529 55.9475V86.1202H206.529V55.9475H200.529ZM203.529 83.1202H146.686V89.1202H203.529V83.1202ZM143.686 86.1202V109.827H149.686V86.1202H143.686ZM146.686 112.827H208.378V106.827H146.686V112.827ZM205.378 109.827V140H211.378V109.827H205.378ZM208.378 137H109.239V143H208.378V137ZM227.219 140H224.219V143H227.219V140ZM227.219 2.06772V-0.932277H224.219V2.06772H227.219ZM326.627 2.06772H329.627V-0.932277H326.627V2.06772ZM326.627 32.2404V35.2404H329.627V32.2404H326.627ZM264.665 32.2404V29.2404H261.665V32.2404H264.665ZM264.665 55.9475H261.665V58.9475H264.665V55.9475ZM321.509 55.9475H324.509V52.9475H321.509V55.9475ZM321.509 86.1202V89.1202H324.509V86.1202H321.509ZM264.665 86.1202V83.1202H261.665V86.1202H264.665ZM264.665 109.827H261.665V112.827H264.665V109.827ZM326.358 109.827H329.358V106.827H326.358V109.827ZM326.358 140V143H329.358V140H326.358ZM230.219 140V2.06772H224.219V140H230.219ZM227.219 5.06772H326.627V-0.932277H227.219V5.06772ZM323.627 2.06772V32.2404H329.627V2.06772H323.627ZM326.627 29.2404H264.665V35.2404H326.627V29.2404ZM261.665 32.2404V55.9475H267.665V32.2404H261.665ZM264.665 58.9475H321.509V52.9475H264.665V58.9475ZM318.509 55.9475V86.1202H324.509V55.9475H318.509ZM321.509 83.1202H264.665V89.1202H321.509V83.1202ZM261.665 86.1202V109.827H267.665V86.1202H261.665ZM264.665 112.827H326.358V106.827H264.665V112.827ZM323.358 109.827V140H329.358V109.827H323.358ZM326.358 137H227.219V143H326.358V137ZM341.427 32.2404H338.427V35.2404H341.427V32.2404ZM341.427 2.06772V-0.932277H338.427V2.06772H341.427ZM461.31 2.06772H464.31V-0.932277H461.31V2.06772ZM461.31 32.2404V35.2404H464.31V32.2404H461.31ZM419.822 32.2404V29.2404H416.822V32.2404H419.822ZM419.822 140V143H422.822V140H419.822ZM382.915 140H379.915V143H382.915V140ZM382.915 32.2404H385.915V29.2404H382.915V32.2404ZM344.427 32.2404V2.06772H338.427V32.2404H344.427ZM341.427 5.06772H461.31V-0.932277H341.427V5.06772ZM458.31 2.06772V32.2404H464.31V2.06772H458.31ZM461.31 29.2404H419.822V35.2404H461.31V29.2404ZM416.822 32.2404V140H422.822V32.2404H416.822ZM419.822 137H382.915V143H419.822V137ZM385.915 140V32.2404H379.915V140H385.915ZM382.915 29.2404H341.427V35.2404H382.915V29.2404ZM475.403 140H472.403V143H475.403V140ZM475.403 2.06772V-0.932277H472.403V2.06772H475.403ZM561.812 8.1292L560.415 10.784L560.415 10.784L561.812 8.1292ZM579.728 25.1687L582.319 23.6581L582.319 23.6581L579.728 25.1687ZM579.525 76.4892L576.963 74.9293L576.956 74.941L579.525 76.4892ZM561.139 93.1919L559.81 90.5026L559.804 90.5056L561.139 93.1919ZM498.032 99.0514H495.032V102.051H498.032V99.0514ZM498.032 69.9563V66.9563H495.032V69.9563H498.032ZM537.297 67.6664L538.623 70.3574L538.631 70.3536L538.639 70.3497L537.297 67.6664ZM544.504 60.9987L541.924 59.4671L541.915 59.4821L541.906 59.4972L544.504 60.9987ZM544.504 40.7265L541.917 42.2457L541.931 42.2701L541.946 42.2942L544.504 40.7265ZM537.297 34.2609L535.971 36.9519L535.994 36.9634L536.018 36.9745L537.297 34.2609ZM512.849 31.971V28.971H509.849V31.971H512.849ZM512.849 140V143H515.849V140H512.849ZM478.403 140V2.06772H472.403V140H478.403ZM475.403 5.06772H534.94V-0.932277H475.403V5.06772ZM534.94 5.06772C544.778 5.06772 553.239 7.00723 560.415 10.784L563.21 5.47445C555.03 1.1692 545.577 -0.932277 534.94 -0.932277V5.06772ZM560.415 10.784C567.608 14.5698 573.16 19.8587 577.136 26.6793L582.319 23.6581C577.764 15.8413 571.372 9.77061 563.21 5.47445L560.415 10.784ZM577.136 26.6793C581.095 33.4722 583.126 41.4879 583.126 50.8289H589.126C589.126 40.5936 586.891 31.5025 582.319 23.6581L577.136 26.6793ZM583.126 50.8289C583.126 60.25 581.032 68.2443 576.963 74.9294L582.088 78.049C586.819 70.2764 589.126 61.1638 589.126 50.8289H583.126ZM576.956 74.941C572.91 81.6563 567.222 86.8384 559.81 90.5026L562.468 95.8813C570.861 91.7328 577.43 85.7798 582.095 78.0374L576.956 74.941ZM559.804 90.5056C552.435 94.1687 543.727 96.0514 533.593 96.0514V102.051C544.472 102.051 554.128 100.028 562.474 95.8783L559.804 90.5056ZM533.593 96.0514H498.032V102.051H533.593V96.0514ZM501.032 99.0514V69.9563H495.032V99.0514H501.032ZM498.032 72.9563H526.05V66.9563H498.032V72.9563ZM526.05 72.9563C530.788 72.9563 535.015 72.1351 538.623 70.3574L535.971 64.9753C533.383 66.2508 530.112 66.9563 526.05 66.9563V72.9563ZM538.639 70.3497C542.275 68.5318 545.128 65.9126 547.101 62.5003L541.906 59.4972C540.557 61.8321 538.606 63.658 535.956 64.9831L538.639 70.3497ZM547.083 62.5304C549.108 59.12 550.063 55.1822 550.063 50.8289H544.063C544.063 54.2883 543.312 57.1303 541.924 59.4671L547.083 62.5304ZM550.063 50.8289C550.063 46.4411 549.112 42.5048 547.061 39.1588L541.946 42.2942C543.307 44.5157 544.063 47.3144 544.063 50.8289H550.063ZM547.09 39.2072C545.105 35.8263 542.231 33.2704 538.576 31.5473L536.018 36.9745C538.649 38.2148 540.58 39.9693 541.917 42.2457L547.09 39.2072ZM538.623 31.5699C535.015 29.7921 530.788 28.971 526.05 28.971V34.971C530.112 34.971 533.383 35.6765 535.971 36.9519L538.623 31.5699ZM526.05 28.971H512.849V34.971H526.05V28.971ZM509.849 31.971V140H515.849V31.971H509.849ZM512.849 137H475.403V143H512.849V137ZM618.47 140V143H620.699L621.342 140.867L618.47 140ZM578.061 140L575.212 139.06L573.911 143H578.061V140ZM623.589 2.06772V-0.932277H621.42L620.74 1.12739L623.589 2.06772ZM674.775 2.06772L677.624 1.12739L676.944 -0.932277H674.775V2.06772ZM720.303 140V143H724.453L723.152 139.06L720.303 140ZM679.893 140L677.021 140.867L677.665 143H679.893V140ZM649.721 40.053L652.593 39.186L651.949 37.053H649.721V40.053ZM648.643 40.053V37.053H646.415L645.771 39.186L648.643 40.053ZM610.927 85.5814V82.5814H607.927V85.5814H610.927ZM686.898 85.5814H689.898V82.5814H686.898V85.5814ZM686.898 113.599V116.599H689.898V113.599H686.898ZM610.927 113.599H607.927V116.599H610.927V113.599ZM618.47 137H578.061V143H618.47V137ZM580.909 140.94L626.438 3.00806L620.74 1.12739L575.212 139.06L580.909 140.94ZM623.589 5.06772H674.775V-0.932277H623.589V5.06772ZM671.926 3.00806L717.454 140.94L723.152 139.06L677.624 1.12739L671.926 3.00806ZM720.303 137H679.893V143H720.303V137ZM682.765 139.133L652.593 39.186L646.849 40.92L677.021 140.867L682.765 139.133ZM649.721 37.053H648.643V43.053H649.721V37.053ZM645.771 39.186L615.598 139.133L621.342 140.867L651.515 40.92L645.771 39.186ZM610.927 88.5814H686.898V82.5814H610.927V88.5814ZM683.898 85.5814V113.599H689.898V85.5814H683.898ZM686.898 110.599H610.927V116.599H686.898V110.599ZM613.927 113.599V85.5814H607.927V113.599H613.927ZM852.932 2.06772H855.932V-0.932277H852.932V2.06772ZM852.932 140V143H855.932V140H852.932ZM821.682 140L819.21 141.7L820.104 143H821.682V140ZM771.843 67.5317L774.315 65.8317L773.42 64.5317H771.843V67.5317ZM771.035 67.5317V64.5317H768.035V67.5317H771.035ZM771.035 140V143H774.035V140H771.035ZM733.588 140H730.588V143H733.588V140ZM733.588 2.06772V-0.932277H730.588V2.06772H733.588ZM765.377 2.06772L767.859 0.382313L766.966 -0.932277H765.377V2.06772ZM814.408 74.2667L811.926 75.9521L812.819 77.2667H814.408V74.2667ZM815.485 74.2667V77.2667H818.485V74.2667H815.485ZM815.485 2.06772V-0.932277H812.485V2.06772H815.485ZM849.932 2.06772V140H855.932V2.06772H849.932ZM852.932 137H821.682V143H852.932V137ZM824.153 138.3L774.315 65.8317L769.371 69.2317L819.21 141.7L824.153 138.3ZM771.843 64.5317H771.035V70.5317H771.843V64.5317ZM768.035 67.5317V140H774.035V67.5317H768.035ZM771.035 137H733.588V143H771.035V137ZM736.588 140V2.06772H730.588V140H736.588ZM733.588 5.06772H765.377V-0.932277H733.588V5.06772ZM762.895 3.75313L811.926 75.9521L816.89 72.5812L767.859 0.382313L762.895 3.75313ZM814.408 77.2667H815.485V71.2667H814.408V77.2667ZM818.485 74.2667V2.06772H812.485V74.2667H818.485ZM815.485 5.06772H852.932V-0.932277H815.485V5.06772ZM870.645 140H867.645V143H870.645V140ZM870.645 2.06772V-0.932277H867.645V2.06772H870.645ZM959.951 10.3517L958.536 12.9972L958.543 13.0009L958.549 13.0045L959.951 10.3517ZM983.927 34.0589L981.291 35.4914L981.295 35.4982L981.299 35.5051L983.927 34.0589ZM983.994 108.076L986.628 109.514L986.63 109.509L983.994 108.076ZM960.153 131.783L961.563 134.431L961.572 134.426L960.153 131.783ZM908.091 108.211H905.091V111.211H908.091V108.211ZM939.813 104.911L938.573 102.179L938.564 102.183L939.813 104.911ZM950.858 93.5287L948.148 92.2415L948.144 92.2507L948.14 92.26L950.858 93.5287ZM950.791 48.539L948.081 49.8262L948.085 49.8354L948.09 49.8446L950.791 48.539ZM939.476 37.1569L938.255 39.8974L938.265 39.9014L939.476 37.1569ZM908.091 33.8568V30.8568H905.091V33.8568H908.091ZM923.716 137H870.645V143H923.716V137ZM873.645 140V2.06772H867.645V140H873.645ZM870.645 5.06772H923.178V-0.932277H870.645V5.06772ZM923.178 5.06772C936.976 5.06772 948.727 7.75166 958.536 12.9972L961.365 7.70628C950.52 1.90647 937.756 -0.932277 923.178 -0.932277V5.06772ZM958.549 13.0045C968.397 18.2055 975.96 25.6828 981.291 35.4914L986.563 32.6263C980.669 21.7809 972.247 13.4535 961.352 7.69899L958.549 13.0045ZM981.299 35.5051C986.663 45.2551 989.413 57.0592 989.413 71.0339H995.413C995.413 56.2726 992.506 43.4268 986.555 32.6127L981.299 35.5051ZM989.413 71.0339C989.413 85.0116 986.684 96.844 981.358 106.644L986.63 109.509C992.529 98.6545 995.413 85.792 995.413 71.0339H989.413ZM981.361 106.639C976.027 116.412 968.5 123.894 958.733 129.14L961.572 134.426C972.369 128.627 980.737 120.305 986.628 109.514L981.361 106.639ZM958.742 129.136C948.974 134.34 937.332 137 923.716 137V143C938.118 143 950.767 140.183 961.563 134.431L958.742 129.136ZM908.091 111.211H922.369V105.211H908.091V111.211ZM922.369 111.211C929.504 111.211 935.769 110.062 941.062 107.638L938.564 102.183C934.248 104.16 928.884 105.211 922.369 105.211V111.211ZM941.052 107.643C946.63 105.112 950.798 100.753 953.577 94.7973L948.14 92.26C945.89 97.0803 942.694 100.309 938.573 102.179L941.052 107.643ZM953.568 94.8158C956.4 88.8534 957.697 80.8465 957.697 71.0339H951.697C951.697 80.4384 950.435 87.428 948.148 92.2415L953.568 94.8158ZM957.697 71.0339C957.697 61.2166 956.377 53.2022 953.492 47.2335L948.09 49.8446C950.413 54.6519 951.697 61.634 951.697 71.0339H957.697ZM953.501 47.2519C950.664 41.2806 946.394 36.9314 940.688 34.4125L938.265 39.9014C942.526 41.7827 945.799 45.0215 948.081 49.8262L953.501 47.2519ZM940.697 34.4165C935.27 31.9989 928.765 30.8568 921.292 30.8568V36.8568C928.186 36.8568 933.805 37.9148 938.255 39.8973L940.697 34.4165ZM921.292 30.8568H908.091V36.8568H921.292V30.8568ZM905.091 33.8568V108.211H911.091V33.8568H905.091ZM1036.86 140V143H1039.09L1039.74 140.867L1036.86 140ZM996.454 140L993.605 139.06L992.305 143H996.454V140ZM1041.98 2.06772V-0.932277H1039.81L1039.13 1.12739L1041.98 2.06772ZM1093.17 2.06772L1096.02 1.12739L1095.34 -0.932277H1093.17V2.06772ZM1138.7 140V143H1142.85L1141.55 139.06L1138.7 140ZM1098.29 140L1095.41 140.867L1096.06 143H1098.29V140ZM1068.11 40.053L1070.99 39.186L1070.34 37.053H1068.11V40.053ZM1067.04 40.053V37.053H1064.81L1064.16 39.186L1067.04 40.053ZM1029.32 85.5814V82.5814H1026.32V85.5814H1029.32ZM1105.29 85.5814H1108.29V82.5814H1105.29V85.5814ZM1105.29 113.599V116.599H1108.29V113.599H1105.29ZM1029.32 113.599H1026.32V116.599H1029.32V113.599ZM1036.86 137H996.454V143H1036.86V137ZM999.303 140.94L1044.83 3.00806L1039.13 1.12739L993.605 139.06L999.303 140.94ZM1041.98 5.06772H1093.17V-0.932277H1041.98V5.06772ZM1090.32 3.00806L1135.85 140.94L1141.55 139.06L1096.02 1.12739L1090.32 3.00806ZM1138.7 137H1098.29V143H1138.7V137ZM1101.16 139.133L1070.99 39.186L1065.24 40.92L1095.41 140.867L1101.16 139.133ZM1068.11 37.053H1067.04V43.053H1068.11V37.053ZM1064.16 39.186L1033.99 139.133L1039.74 140.867L1069.91 40.92L1064.16 39.186ZM1029.32 88.5814H1105.29V82.5814H1029.32V88.5814ZM1102.29 85.5814V113.599H1108.29V85.5814H1102.29ZM1105.29 110.599H1029.32V116.599H1105.29V110.599ZM1032.32 113.599V85.5814H1026.32V113.599H1032.32ZM1220.96 45.1716L1217.97 45.4108L1218.19 48.1716H1220.96V45.1716ZM1215.91 34.665L1213.97 36.9525L1213.98 36.9597L1213.99 36.9668L1215.91 34.665ZM1192.88 32.3078L1193.92 35.121L1193.94 35.1158L1193.95 35.1104L1192.88 32.3078ZM1187.49 36.012L1185.08 34.223L1185.08 34.223L1187.49 36.012ZM1185.67 41.4L1188.67 41.5619L1188.67 41.5143L1188.67 41.4666L1185.67 41.4ZM1186.55 45.9124L1183.87 47.2541L1183.89 47.3084L1183.92 47.3616L1186.55 45.9124ZM1189.92 49.4819L1188.19 51.9328L1188.21 51.9501L1188.24 51.9668L1189.92 49.4819ZM1204.26 54.6005L1204.89 51.6671L1204.88 51.6645L1204.87 51.6619L1204.26 54.6005ZM1215.58 57.0251L1214.95 59.9585L1214.95 59.96L1215.58 57.0251ZM1235.18 63.4233L1233.86 66.1199L1235.18 63.4233ZM1248.51 72.785L1246.35 74.8654L1246.36 74.8722L1246.36 74.8789L1248.51 72.785ZM1256.12 84.7732L1253.3 85.7984L1253.31 85.811L1253.31 85.8235L1256.12 84.7732ZM1258.68 99.3208L1261.68 99.3356L1261.68 99.3154L1261.68 99.2951L1258.68 99.3208ZM1251.88 122.354L1254.32 124.098L1254.32 124.098L1251.88 122.354ZM1232.62 136.7L1231.52 133.907L1231.51 133.909L1232.62 136.7ZM1171.26 136.296L1170.15 139.082L1170.15 139.084L1171.26 136.296ZM1150.52 119.93L1148.01 121.583L1148.02 121.592L1148.03 121.601L1150.52 119.93ZM1143.11 91.5082V88.5082H1140.1L1140.11 91.5199L1143.11 91.5082ZM1178.67 91.5082L1181.66 91.3488L1181.51 88.5082H1178.67V91.5082ZM1181.83 102.149L1179.33 103.795L1179.33 103.795L1181.83 102.149ZM1189.78 108.682L1188.59 111.434L1188.59 111.437L1188.6 111.44L1189.78 108.682ZM1212.14 109.423L1213.17 112.24L1213.17 112.24L1212.14 109.423ZM1218.27 105.315L1220.62 107.182L1220.62 107.182L1218.27 105.315ZM1220.43 99.3208L1223.42 99.3807L1223.43 99.3188L1223.42 99.2569L1220.43 99.3208ZM1218.34 93.7981L1216 95.6801L1216.03 95.7157L1216.06 95.7504L1218.34 93.7981ZM1211.87 89.4877L1210.68 92.2409L1210.7 92.2484L1210.72 92.2557L1211.87 89.4877ZM1199.68 85.8508L1200.32 82.9204L1200.31 82.9182L1199.68 85.8508ZM1185.94 82.8874L1185.31 85.8192L1185.31 85.82L1185.94 82.8874ZM1157.05 69.6195L1155.05 71.8594L1155.06 71.8661L1155.07 71.8728L1157.05 69.6195ZM1146.61 44.094L1149.61 44.1065L1149.61 44.0925L1149.61 44.0786L1146.61 44.094ZM1153.61 21.1277L1151.18 19.373L1151.18 19.3761L1153.61 21.1277ZM1173.35 5.70461L1172.15 2.95479L1172.14 2.95715L1173.35 5.70461ZM1231.27 5.77196L1230.02 8.49892L1230.02 8.49892L1231.27 5.77196ZM1250.06 21.5318L1247.54 23.165L1247.55 23.1747L1247.56 23.1843L1250.06 21.5318ZM1256.79 45.1716V48.1716H1259.81L1259.79 45.1566L1256.79 45.1716ZM1223.95 44.9323C1223.54 39.7695 1221.56 35.4721 1217.84 32.3632L1213.99 36.9668C1216.29 38.8867 1217.67 41.5936 1217.97 45.4108L1223.95 44.9323ZM1217.85 32.3775C1214.12 29.2066 1208.77 27.8934 1202.38 27.8934V33.8934C1208.1 33.8934 1211.78 35.0946 1213.97 36.9525L1217.85 32.3775ZM1202.38 27.8934C1198.3 27.8934 1194.74 28.3864 1191.81 29.5051L1193.95 35.1104C1195.96 34.3434 1198.73 33.8934 1202.38 33.8934V27.8934ZM1191.84 29.4945C1189.04 30.5309 1186.69 32.0571 1185.08 34.223L1189.9 37.801C1190.63 36.8239 1191.87 35.8806 1193.92 35.121L1191.84 29.4945ZM1185.08 34.223C1183.53 36.3105 1182.73 38.7128 1182.67 41.3333L1188.67 41.4666C1188.7 40.0462 1189.12 38.8565 1189.9 37.801L1185.08 34.223ZM1182.68 41.2381C1182.56 43.3634 1182.94 45.3939 1183.87 47.2541L1189.23 44.5708C1188.82 43.7369 1188.6 42.7592 1188.67 41.5619L1182.68 41.2381ZM1183.92 47.3616C1184.91 49.1497 1186.38 50.6588 1188.19 51.9328L1191.65 47.031C1190.4 46.1498 1189.63 45.2793 1189.18 44.4632L1183.92 47.3616ZM1188.24 51.9668C1190.03 53.1811 1192.23 54.2258 1194.76 55.1347L1196.79 49.4866C1194.56 48.6892 1192.86 47.8482 1191.6 46.9971L1188.24 51.9668ZM1194.76 55.1347C1197.31 56.048 1200.28 56.8457 1203.66 57.5391L1204.87 51.6619C1201.69 51.0084 1199 50.2795 1196.79 49.4866L1194.76 55.1347ZM1203.63 57.5339L1214.95 59.9585L1216.2 54.0917L1204.89 51.6671L1203.63 57.5339ZM1214.95 59.96C1222.41 61.5395 1228.7 63.6041 1233.86 66.1199L1236.49 60.7268C1230.78 57.9444 1224.01 55.7435 1216.2 54.0902L1214.95 59.96ZM1233.86 66.1199C1239.04 68.6465 1243.18 71.5742 1246.35 74.8654L1250.67 70.7046C1246.93 66.8118 1242.17 63.4983 1236.49 60.7268L1233.86 66.1199ZM1246.36 74.8789C1249.54 78.1361 1251.84 81.772 1253.3 85.7984L1258.94 83.748C1257.17 78.8842 1254.4 74.528 1250.66 70.691L1246.36 74.8789ZM1253.31 85.8235C1254.84 89.9075 1255.64 94.4058 1255.68 99.3464L1261.68 99.2951C1261.63 93.7292 1260.73 88.5291 1258.93 83.723L1253.31 85.8235ZM1255.68 99.3059C1255.64 107.867 1253.51 114.913 1249.44 120.611L1254.32 124.098C1259.23 117.224 1261.63 108.915 1261.68 99.3356L1255.68 99.3059ZM1249.44 120.611C1245.34 126.352 1239.42 130.807 1231.52 133.907L1233.71 139.492C1242.51 136.038 1249.44 130.929 1254.32 124.098L1249.44 120.611ZM1231.51 133.909C1223.65 137.013 1214.05 138.616 1202.65 138.616V144.616C1214.59 144.616 1224.97 142.942 1233.72 139.49L1231.51 133.909ZM1202.65 138.616C1190.95 138.616 1180.87 136.885 1172.37 133.507L1170.15 139.084C1179.52 142.801 1190.37 144.616 1202.65 144.616V138.616ZM1172.37 133.509C1164 130.168 1157.58 125.08 1153.01 118.259L1148.03 121.601C1153.33 129.507 1160.74 135.33 1170.15 139.082L1172.37 133.509ZM1153.02 118.276C1148.53 111.481 1146.15 102.624 1146.11 91.4965L1140.11 91.5199C1140.15 103.47 1142.71 113.561 1148.01 121.583L1153.02 118.276ZM1143.11 94.5082H1178.67V88.5082H1143.11V94.5082ZM1175.67 91.6675C1175.92 96.2971 1177.09 100.387 1179.33 103.795L1184.34 100.503C1182.81 98.165 1181.87 95.1605 1181.66 91.3488L1175.67 91.6675ZM1179.33 103.795C1181.56 107.198 1184.68 109.74 1188.59 111.434L1190.98 105.931C1188.05 104.662 1185.88 102.848 1184.34 100.503L1179.33 103.795ZM1188.6 111.44C1192.52 113.118 1197.04 113.905 1202.11 113.905V107.905C1197.65 107.905 1193.96 107.21 1190.96 105.925L1188.6 111.44ZM1202.11 113.905C1206.33 113.905 1210.05 113.386 1213.17 112.24L1211.11 106.607C1208.85 107.436 1205.88 107.905 1202.11 107.905V113.905ZM1213.17 112.24C1216.24 111.115 1218.8 109.47 1220.62 107.182L1215.92 103.448C1214.96 104.662 1213.43 105.756 1211.11 106.607L1213.17 112.24ZM1220.62 107.182C1222.42 104.914 1223.37 102.28 1223.42 99.3807L1217.43 99.2608C1217.39 100.851 1216.9 102.214 1215.92 103.448L1220.62 107.182ZM1223.42 99.2569C1223.37 96.4676 1222.42 93.9555 1220.62 91.8457L1216.06 95.7504C1216.95 96.7836 1217.4 97.9533 1217.43 99.3846L1223.42 99.2569ZM1220.67 91.9161C1218.93 89.7501 1216.26 88.07 1213.03 86.7197L1210.72 92.2557C1213.5 93.4197 1215.14 94.6132 1216 95.6801L1220.67 91.9161ZM1213.06 86.7345C1209.81 85.3244 1205.53 84.0629 1200.32 82.9204L1199.04 88.7812C1204.07 89.8837 1207.92 91.0468 1210.68 92.2409L1213.06 86.7345ZM1200.31 82.9182L1186.58 79.9549L1185.31 85.82L1199.05 88.7834L1200.31 82.9182ZM1186.58 79.9556C1174.7 77.3801 1165.59 73.1322 1159.03 67.3662L1155.07 71.8728C1162.61 78.4992 1172.75 83.0966 1185.31 85.8192L1186.58 79.9556ZM1159.05 67.3797C1152.78 61.7986 1149.57 54.1639 1149.61 44.1065L1143.61 44.0815C1143.56 55.5759 1147.31 64.9583 1155.05 71.8594L1159.05 67.3797ZM1149.61 44.0786C1149.57 35.9005 1151.74 28.8761 1156.05 22.8793L1151.18 19.3761C1146.06 26.4901 1143.56 34.7765 1143.61 44.1094L1149.61 44.0786ZM1156.05 22.8824C1160.46 16.7699 1166.58 11.9465 1174.55 8.45207L1172.14 2.95715C1163.32 6.82631 1156.29 12.285 1151.18 19.373L1156.05 22.8824ZM1174.55 8.45442C1182.55 4.96524 1191.8 3.18193 1202.38 3.18193V-2.81807C1191.13 -2.81807 1181.03 -0.919602 1172.15 2.95479L1174.55 8.45442ZM1202.38 3.18193C1213.18 3.18193 1222.37 4.99064 1230.02 8.49892L1232.52 3.045C1223.92 -0.900091 1213.84 -2.81807 1202.38 -2.81807V3.18193ZM1230.02 8.49892C1237.68 12.0145 1243.48 16.9122 1247.54 23.165L1252.58 19.8986C1247.83 12.5916 1241.11 6.9828 1232.52 3.045L1230.02 8.49892ZM1247.56 23.1843C1251.64 29.3769 1253.75 36.6727 1253.79 45.1865L1259.79 45.1566C1259.75 35.6206 1257.37 27.1567 1252.56 19.8793L1247.56 23.1843ZM1256.79 42.1716H1220.96V48.1716H1256.79V42.1716Z" fill="black" mask="url(#path-1-outside-1_27_4)"/>
</svg>
