<svg width="1372" height="307" viewBox="0 0 1372 307" fill="none" xmlns="http://www.w3.org/2000/svg">
<rect x="2" y="2" width="1368" height="303" rx="18" fill="white" stroke="black" stroke-width="4"/>
<mask id="path-2-outside-1_11_13" maskUnits="userSpaceOnUse" x="64" y="72" width="1247" height="163" fill="black">
<rect fill="white" x="64" y="72" width="1247" height="163"/>
<path d="M66.9908 230V74.991H109.073V196.092H171.743V230H66.9908ZM245.066 232.119C232.653 232.119 221.956 229.748 212.974 225.005C204.043 220.211 197.155 213.349 192.311 204.417C187.518 195.436 185.121 184.688 185.121 172.174C185.121 160.165 187.543 149.67 192.387 140.688C197.231 131.707 204.068 124.718 212.898 119.723C221.729 114.727 232.148 112.23 244.157 112.23C252.937 112.23 260.884 113.592 267.999 116.317C275.114 119.041 281.194 123.002 286.24 128.2C291.286 133.346 295.171 139.603 297.896 146.97C300.621 154.337 301.983 162.638 301.983 171.872V181.56H198.139V158.551H263.534C263.483 155.22 262.625 152.294 260.96 149.771C259.345 147.197 257.151 145.204 254.375 143.791C251.651 142.328 248.547 141.596 245.066 141.596C241.685 141.596 238.582 142.328 235.756 143.791C232.93 145.204 230.66 147.172 228.944 149.695C227.279 152.218 226.396 155.17 226.295 158.551V183.376C226.295 187.11 227.077 190.44 228.641 193.367C230.206 196.294 232.451 198.589 235.378 200.255C238.304 201.92 241.836 202.752 245.974 202.752C248.85 202.752 251.474 202.349 253.845 201.541C256.268 200.734 258.336 199.573 260.052 198.06C261.768 196.495 263.029 194.628 263.836 192.459H301.983C300.671 200.532 297.568 207.546 292.673 213.5C287.779 219.404 281.295 223.995 273.222 227.275C265.199 230.505 255.813 232.119 245.066 232.119ZM374.738 232.119C362.325 232.119 351.628 229.748 342.646 225.005C333.715 220.211 326.828 213.349 321.984 204.417C317.19 195.436 314.793 184.688 314.793 172.174C314.793 160.165 317.215 149.67 322.059 140.688C326.903 131.707 333.74 124.718 342.571 119.723C351.401 114.727 361.821 112.23 373.83 112.23C382.61 112.23 390.557 113.592 397.672 116.317C404.786 119.041 410.867 123.002 415.912 128.2C420.958 133.346 424.844 139.603 427.568 146.97C430.293 154.337 431.655 162.638 431.655 171.872V181.56H327.812V158.551H393.206C393.156 155.22 392.298 152.294 390.633 149.771C389.018 147.197 386.823 145.204 384.048 143.791C381.323 142.328 378.22 141.596 374.738 141.596C371.357 141.596 368.254 142.328 365.428 143.791C362.603 145.204 360.332 147.172 358.617 149.695C356.951 152.218 356.068 155.17 355.968 158.551V183.376C355.968 187.11 356.75 190.44 358.314 193.367C359.878 196.294 362.123 198.589 365.05 200.255C367.977 201.92 371.509 202.752 375.646 202.752C378.523 202.752 381.146 202.349 383.518 201.541C385.94 200.734 388.009 199.573 389.724 198.06C391.44 196.495 392.701 194.628 393.509 192.459H431.655C430.344 200.532 427.24 207.546 422.346 213.5C417.451 219.404 410.967 223.995 402.894 227.275C394.871 230.505 385.486 232.119 374.738 232.119ZM518.034 113.743V144.018H441.438V113.743H518.034ZM456.273 85.8901H498.053V192.61C498.053 194.225 498.33 195.587 498.885 196.697C499.44 197.757 500.298 198.564 501.459 199.119C502.619 199.624 504.108 199.876 505.924 199.876C507.186 199.876 508.649 199.725 510.314 199.422C512.03 199.119 513.291 198.867 514.099 198.665L520.154 228.032C518.287 228.587 515.612 229.268 512.131 230.076C508.7 230.883 504.612 231.413 499.869 231.665C490.282 232.17 482.234 231.186 475.725 228.713C469.216 226.19 464.321 222.229 461.041 216.83C457.762 211.431 456.172 204.67 456.273 196.546V85.8901ZM536.975 230V74.991H603.883C615.388 74.991 625.455 77.2617 634.083 81.803C642.711 86.3442 649.422 92.7272 654.216 100.952C659.01 109.177 661.406 118.789 661.406 129.789C661.406 140.89 658.934 150.502 653.989 158.626C649.094 166.75 642.207 173.007 633.326 177.397C624.496 181.787 614.177 183.982 602.37 183.982H562.406V151.285H593.893C598.838 151.285 603.051 150.427 606.533 148.711C610.065 146.945 612.764 144.447 614.631 141.218C616.549 137.989 617.507 134.179 617.507 129.789C617.507 125.349 616.549 121.564 614.631 118.436C612.764 115.257 610.065 112.835 606.533 111.17C603.051 109.454 598.838 108.596 593.893 108.596H579.058V230H536.975ZM704.643 231.817C697.226 231.817 690.666 230.606 684.964 228.183C679.313 225.711 674.872 221.977 671.643 216.982C668.414 211.986 666.799 205.628 666.799 197.908C666.799 191.551 667.884 186.126 670.054 181.635C672.223 177.094 675.251 173.385 679.136 170.509C683.022 167.633 687.538 165.438 692.684 163.924C697.882 162.411 703.483 161.427 709.487 160.973C715.996 160.468 721.219 159.862 725.154 159.156C729.141 158.399 732.017 157.365 733.783 156.053C735.549 154.69 736.432 152.899 736.432 150.679V150.376C736.432 147.349 735.271 145.028 732.95 143.413C730.629 141.798 727.652 140.991 724.019 140.991C720.033 140.991 716.778 141.874 714.255 143.64C711.783 145.356 710.294 148.005 709.79 151.587H671.34C671.845 144.523 674.09 138.014 678.077 132.06C682.113 126.055 687.992 121.262 695.712 117.679C703.432 114.046 713.07 112.23 724.625 112.23C732.95 112.23 740.418 113.213 747.028 115.181C753.638 117.099 759.265 119.798 763.907 123.28C768.549 126.711 772.081 130.748 774.503 135.39C776.976 139.982 778.212 144.977 778.212 150.376V230H739.157V213.651H738.249C735.927 217.991 733.102 221.498 729.771 224.172C726.492 226.846 722.732 228.789 718.494 230C714.306 231.211 709.689 231.817 704.643 231.817ZM718.267 205.477C721.446 205.477 724.423 204.821 727.198 203.509C730.024 202.197 732.32 200.305 734.086 197.833C735.852 195.36 736.735 192.358 736.735 188.826V179.138C735.625 179.592 734.439 180.021 733.177 180.424C731.966 180.828 730.654 181.206 729.242 181.56C727.879 181.913 726.416 182.241 724.852 182.544C723.338 182.846 721.749 183.124 720.083 183.376C716.854 183.881 714.205 184.713 712.136 185.874C710.118 186.984 708.604 188.372 707.595 190.037C706.636 191.651 706.157 193.468 706.157 195.486C706.157 198.716 707.292 201.188 709.563 202.904C711.833 204.619 714.735 205.477 718.267 205.477ZM839.954 164.606V230H798.175V113.743H837.835V135.844H839.046C841.569 128.477 846.009 122.7 852.367 118.512C858.775 114.324 866.243 112.23 874.771 112.23C882.995 112.23 890.135 114.122 896.19 117.906C902.296 121.64 907.014 126.787 910.344 133.346C913.725 139.906 915.39 147.399 915.339 155.826V230H873.56V164.606C873.61 158.853 872.147 154.337 869.17 151.057C866.243 147.778 862.156 146.138 856.908 146.138C853.477 146.138 850.475 146.895 847.901 148.408C845.379 149.872 843.436 151.991 842.074 154.766C840.711 157.491 840.005 160.771 839.954 164.606ZM978.047 231.514C969.772 231.514 962.152 229.344 955.189 225.005C948.276 220.665 942.726 214.08 938.538 205.25C934.4 196.42 932.331 185.294 932.331 171.872C932.331 157.844 934.501 146.44 938.841 137.661C943.23 128.881 948.882 122.447 955.795 118.36C962.758 114.273 970.074 112.23 977.744 112.23C983.496 112.23 988.542 113.239 992.882 115.257C997.221 117.225 1000.85 119.874 1003.78 123.204C1006.71 126.484 1008.93 130.092 1010.44 134.028H1011.05V74.991H1052.83V230H1011.35V210.927H1010.44C1008.83 214.862 1006.51 218.395 1003.48 221.523C1000.5 224.601 996.868 227.048 992.579 228.865C988.34 230.631 983.496 231.514 978.047 231.514ZM993.487 199.422C997.322 199.422 1000.6 198.312 1003.33 196.092C1006.1 193.821 1008.22 190.642 1009.68 186.555C1011.2 182.417 1011.96 177.523 1011.96 171.872C1011.96 166.119 1011.2 161.2 1009.68 157.112C1008.22 152.975 1006.1 149.821 1003.33 147.651C1000.6 145.431 997.322 144.321 993.487 144.321C989.652 144.321 986.373 145.431 983.648 147.651C980.974 149.821 978.905 152.975 977.441 157.112C976.029 161.2 975.322 166.119 975.322 171.872C975.322 177.624 976.029 182.569 977.441 186.706C978.905 190.794 980.974 193.947 983.648 196.167C986.373 198.337 989.652 199.422 993.487 199.422ZM1105.73 231.817C1098.32 231.817 1091.76 230.606 1086.05 228.183C1080.4 225.711 1075.96 221.977 1072.73 216.982C1069.5 211.986 1067.89 205.628 1067.89 197.908C1067.89 191.551 1068.97 186.126 1071.14 181.635C1073.31 177.094 1076.34 173.385 1080.23 170.509C1084.11 167.633 1088.63 165.438 1093.77 163.924C1098.97 162.411 1104.57 161.427 1110.58 160.973C1117.09 160.468 1122.31 159.862 1126.24 159.156C1130.23 158.399 1133.11 157.365 1134.87 156.053C1136.64 154.69 1137.52 152.899 1137.52 150.679V150.376C1137.52 147.349 1136.36 145.028 1134.04 143.413C1131.72 141.798 1128.74 140.991 1125.11 140.991C1121.12 140.991 1117.87 141.874 1115.34 143.64C1112.87 145.356 1111.38 148.005 1110.88 151.587H1072.43C1072.93 144.523 1075.18 138.014 1079.17 132.06C1083.2 126.055 1089.08 121.262 1096.8 117.679C1104.52 114.046 1114.16 112.23 1125.71 112.23C1134.04 112.23 1141.51 113.213 1148.12 115.181C1154.73 117.099 1160.35 119.798 1165 123.28C1169.64 126.711 1173.17 130.748 1175.59 135.39C1178.07 139.982 1179.3 144.977 1179.3 150.376V230H1140.25V213.651H1139.34C1137.02 217.991 1134.19 221.498 1130.86 224.172C1127.58 226.846 1123.82 228.789 1119.58 230C1115.4 231.211 1110.78 231.817 1105.73 231.817ZM1119.36 205.477C1122.54 205.477 1125.51 204.821 1128.29 203.509C1131.11 202.197 1133.41 200.305 1135.18 197.833C1136.94 195.36 1137.82 192.358 1137.82 188.826V179.138C1136.71 179.592 1135.53 180.021 1134.27 180.424C1133.06 180.828 1131.74 181.206 1130.33 181.56C1128.97 181.913 1127.51 182.241 1125.94 182.544C1124.43 182.846 1122.84 183.124 1121.17 183.376C1117.94 183.881 1115.29 184.713 1113.23 185.874C1111.21 186.984 1109.69 188.372 1108.68 190.037C1107.73 191.651 1107.25 193.468 1107.25 195.486C1107.25 198.716 1108.38 201.188 1110.65 202.904C1112.92 204.619 1115.82 205.477 1119.36 205.477ZM1305.53 151.587H1267.08C1266.88 149.216 1266.05 147.172 1264.58 145.457C1263.12 143.741 1261.23 142.429 1258.91 141.521C1256.64 140.562 1254.11 140.083 1251.34 140.083C1247.75 140.083 1244.68 140.739 1242.1 142.051C1239.53 143.362 1238.27 145.229 1238.32 147.651C1238.27 149.367 1239 150.957 1240.51 152.42C1242.08 153.883 1245.08 155.018 1249.52 155.826L1273.14 160.064C1285.04 162.234 1293.9 165.892 1299.7 171.039C1305.56 176.135 1308.51 182.973 1308.56 191.551C1308.51 199.826 1306.03 207.016 1301.14 213.122C1296.3 219.177 1289.66 223.869 1281.23 227.2C1272.86 230.479 1263.3 232.119 1252.55 232.119C1234.79 232.119 1220.89 228.486 1210.84 221.22C1200.85 213.954 1195.28 204.367 1194.12 192.459H1235.59C1236.15 196.142 1237.97 198.993 1241.04 201.012C1244.17 202.979 1248.11 203.963 1252.85 203.963C1256.69 203.963 1259.84 203.307 1262.31 201.995C1264.83 200.684 1266.12 198.817 1266.17 196.395C1266.12 194.174 1265.01 192.408 1262.84 191.096C1260.72 189.784 1257.39 188.725 1252.85 187.917L1232.26 184.284C1220.41 182.216 1211.53 178.28 1205.62 172.477C1199.72 166.674 1196.79 159.207 1196.84 150.074C1196.79 142 1198.91 135.163 1203.2 129.562C1207.54 123.911 1213.72 119.622 1221.74 116.695C1229.82 113.718 1239.38 112.23 1250.43 112.23C1267.23 112.23 1280.48 115.711 1290.17 122.674C1299.9 129.638 1305.03 139.275 1305.53 151.587Z"/>
</mask>
<path d="M66.9908 230V74.991H109.073V196.092H171.743V230H66.9908ZM245.066 232.119C232.653 232.119 221.956 229.748 212.974 225.005C204.043 220.211 197.155 213.349 192.311 204.417C187.518 195.436 185.121 184.688 185.121 172.174C185.121 160.165 187.543 149.67 192.387 140.688C197.231 131.707 204.068 124.718 212.898 119.723C221.729 114.727 232.148 112.23 244.157 112.23C252.937 112.23 260.884 113.592 267.999 116.317C275.114 119.041 281.194 123.002 286.24 128.2C291.286 133.346 295.171 139.603 297.896 146.97C300.621 154.337 301.983 162.638 301.983 171.872V181.56H198.139V158.551H263.534C263.483 155.22 262.625 152.294 260.96 149.771C259.345 147.197 257.151 145.204 254.375 143.791C251.651 142.328 248.547 141.596 245.066 141.596C241.685 141.596 238.582 142.328 235.756 143.791C232.93 145.204 230.66 147.172 228.944 149.695C227.279 152.218 226.396 155.17 226.295 158.551V183.376C226.295 187.11 227.077 190.44 228.641 193.367C230.206 196.294 232.451 198.589 235.378 200.255C238.304 201.92 241.836 202.752 245.974 202.752C248.85 202.752 251.474 202.349 253.845 201.541C256.268 200.734 258.336 199.573 260.052 198.06C261.768 196.495 263.029 194.628 263.836 192.459H301.983C300.671 200.532 297.568 207.546 292.673 213.5C287.779 219.404 281.295 223.995 273.222 227.275C265.199 230.505 255.813 232.119 245.066 232.119ZM374.738 232.119C362.325 232.119 351.628 229.748 342.646 225.005C333.715 220.211 326.828 213.349 321.984 204.417C317.19 195.436 314.793 184.688 314.793 172.174C314.793 160.165 317.215 149.67 322.059 140.688C326.903 131.707 333.74 124.718 342.571 119.723C351.401 114.727 361.821 112.23 373.83 112.23C382.61 112.23 390.557 113.592 397.672 116.317C404.786 119.041 410.867 123.002 415.912 128.2C420.958 133.346 424.844 139.603 427.568 146.97C430.293 154.337 431.655 162.638 431.655 171.872V181.56H327.812V158.551H393.206C393.156 155.22 392.298 152.294 390.633 149.771C389.018 147.197 386.823 145.204 384.048 143.791C381.323 142.328 378.22 141.596 374.738 141.596C371.357 141.596 368.254 142.328 365.428 143.791C362.603 145.204 360.332 147.172 358.617 149.695C356.951 152.218 356.068 155.17 355.968 158.551V183.376C355.968 187.11 356.75 190.44 358.314 193.367C359.878 196.294 362.123 198.589 365.05 200.255C367.977 201.92 371.509 202.752 375.646 202.752C378.523 202.752 381.146 202.349 383.518 201.541C385.94 200.734 388.009 199.573 389.724 198.06C391.44 196.495 392.701 194.628 393.509 192.459H431.655C430.344 200.532 427.24 207.546 422.346 213.5C417.451 219.404 410.967 223.995 402.894 227.275C394.871 230.505 385.486 232.119 374.738 232.119ZM518.034 113.743V144.018H441.438V113.743H518.034ZM456.273 85.8901H498.053V192.61C498.053 194.225 498.33 195.587 498.885 196.697C499.44 197.757 500.298 198.564 501.459 199.119C502.619 199.624 504.108 199.876 505.924 199.876C507.186 199.876 508.649 199.725 510.314 199.422C512.03 199.119 513.291 198.867 514.099 198.665L520.154 228.032C518.287 228.587 515.612 229.268 512.131 230.076C508.7 230.883 504.612 231.413 499.869 231.665C490.282 232.17 482.234 231.186 475.725 228.713C469.216 226.19 464.321 222.229 461.041 216.83C457.762 211.431 456.172 204.67 456.273 196.546V85.8901ZM536.975 230V74.991H603.883C615.388 74.991 625.455 77.2617 634.083 81.803C642.711 86.3442 649.422 92.7272 654.216 100.952C659.01 109.177 661.406 118.789 661.406 129.789C661.406 140.89 658.934 150.502 653.989 158.626C649.094 166.75 642.207 173.007 633.326 177.397C624.496 181.787 614.177 183.982 602.37 183.982H562.406V151.285H593.893C598.838 151.285 603.051 150.427 606.533 148.711C610.065 146.945 612.764 144.447 614.631 141.218C616.549 137.989 617.507 134.179 617.507 129.789C617.507 125.349 616.549 121.564 614.631 118.436C612.764 115.257 610.065 112.835 606.533 111.17C603.051 109.454 598.838 108.596 593.893 108.596H579.058V230H536.975ZM704.643 231.817C697.226 231.817 690.666 230.606 684.964 228.183C679.313 225.711 674.872 221.977 671.643 216.982C668.414 211.986 666.799 205.628 666.799 197.908C666.799 191.551 667.884 186.126 670.054 181.635C672.223 177.094 675.251 173.385 679.136 170.509C683.022 167.633 687.538 165.438 692.684 163.924C697.882 162.411 703.483 161.427 709.487 160.973C715.996 160.468 721.219 159.862 725.154 159.156C729.141 158.399 732.017 157.365 733.783 156.053C735.549 154.69 736.432 152.899 736.432 150.679V150.376C736.432 147.349 735.271 145.028 732.95 143.413C730.629 141.798 727.652 140.991 724.019 140.991C720.033 140.991 716.778 141.874 714.255 143.64C711.783 145.356 710.294 148.005 709.79 151.587H671.34C671.845 144.523 674.09 138.014 678.077 132.06C682.113 126.055 687.992 121.262 695.712 117.679C703.432 114.046 713.07 112.23 724.625 112.23C732.95 112.23 740.418 113.213 747.028 115.181C753.638 117.099 759.265 119.798 763.907 123.28C768.549 126.711 772.081 130.748 774.503 135.39C776.976 139.982 778.212 144.977 778.212 150.376V230H739.157V213.651H738.249C735.927 217.991 733.102 221.498 729.771 224.172C726.492 226.846 722.732 228.789 718.494 230C714.306 231.211 709.689 231.817 704.643 231.817ZM718.267 205.477C721.446 205.477 724.423 204.821 727.198 203.509C730.024 202.197 732.32 200.305 734.086 197.833C735.852 195.36 736.735 192.358 736.735 188.826V179.138C735.625 179.592 734.439 180.021 733.177 180.424C731.966 180.828 730.654 181.206 729.242 181.56C727.879 181.913 726.416 182.241 724.852 182.544C723.338 182.846 721.749 183.124 720.083 183.376C716.854 183.881 714.205 184.713 712.136 185.874C710.118 186.984 708.604 188.372 707.595 190.037C706.636 191.651 706.157 193.468 706.157 195.486C706.157 198.716 707.292 201.188 709.563 202.904C711.833 204.619 714.735 205.477 718.267 205.477ZM839.954 164.606V230H798.175V113.743H837.835V135.844H839.046C841.569 128.477 846.009 122.7 852.367 118.512C858.775 114.324 866.243 112.23 874.771 112.23C882.995 112.23 890.135 114.122 896.19 117.906C902.296 121.64 907.014 126.787 910.344 133.346C913.725 139.906 915.39 147.399 915.339 155.826V230H873.56V164.606C873.61 158.853 872.147 154.337 869.17 151.057C866.243 147.778 862.156 146.138 856.908 146.138C853.477 146.138 850.475 146.895 847.901 148.408C845.379 149.872 843.436 151.991 842.074 154.766C840.711 157.491 840.005 160.771 839.954 164.606ZM978.047 231.514C969.772 231.514 962.152 229.344 955.189 225.005C948.276 220.665 942.726 214.08 938.538 205.25C934.4 196.42 932.331 185.294 932.331 171.872C932.331 157.844 934.501 146.44 938.841 137.661C943.23 128.881 948.882 122.447 955.795 118.36C962.758 114.273 970.074 112.23 977.744 112.23C983.496 112.23 988.542 113.239 992.882 115.257C997.221 117.225 1000.85 119.874 1003.78 123.204C1006.71 126.484 1008.93 130.092 1010.44 134.028H1011.05V74.991H1052.83V230H1011.35V210.927H1010.44C1008.83 214.862 1006.51 218.395 1003.48 221.523C1000.5 224.601 996.868 227.048 992.579 228.865C988.34 230.631 983.496 231.514 978.047 231.514ZM993.487 199.422C997.322 199.422 1000.6 198.312 1003.33 196.092C1006.1 193.821 1008.22 190.642 1009.68 186.555C1011.2 182.417 1011.96 177.523 1011.96 171.872C1011.96 166.119 1011.2 161.2 1009.68 157.112C1008.22 152.975 1006.1 149.821 1003.33 147.651C1000.6 145.431 997.322 144.321 993.487 144.321C989.652 144.321 986.373 145.431 983.648 147.651C980.974 149.821 978.905 152.975 977.441 157.112C976.029 161.2 975.322 166.119 975.322 171.872C975.322 177.624 976.029 182.569 977.441 186.706C978.905 190.794 980.974 193.947 983.648 196.167C986.373 198.337 989.652 199.422 993.487 199.422ZM1105.73 231.817C1098.32 231.817 1091.76 230.606 1086.05 228.183C1080.4 225.711 1075.96 221.977 1072.73 216.982C1069.5 211.986 1067.89 205.628 1067.89 197.908C1067.89 191.551 1068.97 186.126 1071.14 181.635C1073.31 177.094 1076.34 173.385 1080.23 170.509C1084.11 167.633 1088.63 165.438 1093.77 163.924C1098.97 162.411 1104.57 161.427 1110.58 160.973C1117.09 160.468 1122.31 159.862 1126.24 159.156C1130.23 158.399 1133.11 157.365 1134.87 156.053C1136.64 154.69 1137.52 152.899 1137.52 150.679V150.376C1137.52 147.349 1136.36 145.028 1134.04 143.413C1131.72 141.798 1128.74 140.991 1125.11 140.991C1121.12 140.991 1117.87 141.874 1115.34 143.64C1112.87 145.356 1111.38 148.005 1110.88 151.587H1072.43C1072.93 144.523 1075.18 138.014 1079.17 132.06C1083.2 126.055 1089.08 121.262 1096.8 117.679C1104.52 114.046 1114.16 112.23 1125.71 112.23C1134.04 112.23 1141.51 113.213 1148.12 115.181C1154.73 117.099 1160.35 119.798 1165 123.28C1169.64 126.711 1173.17 130.748 1175.59 135.39C1178.07 139.982 1179.3 144.977 1179.3 150.376V230H1140.25V213.651H1139.34C1137.02 217.991 1134.19 221.498 1130.86 224.172C1127.58 226.846 1123.82 228.789 1119.58 230C1115.4 231.211 1110.78 231.817 1105.73 231.817ZM1119.36 205.477C1122.54 205.477 1125.51 204.821 1128.29 203.509C1131.11 202.197 1133.41 200.305 1135.18 197.833C1136.94 195.36 1137.82 192.358 1137.82 188.826V179.138C1136.71 179.592 1135.53 180.021 1134.27 180.424C1133.06 180.828 1131.74 181.206 1130.33 181.56C1128.97 181.913 1127.51 182.241 1125.94 182.544C1124.43 182.846 1122.84 183.124 1121.17 183.376C1117.94 183.881 1115.29 184.713 1113.23 185.874C1111.21 186.984 1109.69 188.372 1108.68 190.037C1107.73 191.651 1107.25 193.468 1107.25 195.486C1107.25 198.716 1108.38 201.188 1110.65 202.904C1112.92 204.619 1115.82 205.477 1119.36 205.477ZM1305.53 151.587H1267.08C1266.88 149.216 1266.05 147.172 1264.58 145.457C1263.12 143.741 1261.23 142.429 1258.91 141.521C1256.64 140.562 1254.11 140.083 1251.34 140.083C1247.75 140.083 1244.68 140.739 1242.1 142.051C1239.53 143.362 1238.27 145.229 1238.32 147.651C1238.27 149.367 1239 150.957 1240.51 152.42C1242.08 153.883 1245.08 155.018 1249.52 155.826L1273.14 160.064C1285.04 162.234 1293.9 165.892 1299.7 171.039C1305.56 176.135 1308.51 182.973 1308.56 191.551C1308.51 199.826 1306.03 207.016 1301.14 213.122C1296.3 219.177 1289.66 223.869 1281.23 227.2C1272.86 230.479 1263.3 232.119 1252.55 232.119C1234.79 232.119 1220.89 228.486 1210.84 221.22C1200.85 213.954 1195.28 204.367 1194.12 192.459H1235.59C1236.15 196.142 1237.97 198.993 1241.04 201.012C1244.17 202.979 1248.11 203.963 1252.85 203.963C1256.69 203.963 1259.84 203.307 1262.31 201.995C1264.83 200.684 1266.12 198.817 1266.17 196.395C1266.12 194.174 1265.01 192.408 1262.84 191.096C1260.72 189.784 1257.39 188.725 1252.85 187.917L1232.26 184.284C1220.41 182.216 1211.53 178.28 1205.62 172.477C1199.72 166.674 1196.79 159.207 1196.84 150.074C1196.79 142 1198.91 135.163 1203.2 129.562C1207.54 123.911 1213.72 119.622 1221.74 116.695C1229.82 113.718 1239.38 112.23 1250.43 112.23C1267.23 112.23 1280.48 115.711 1290.17 122.674C1299.9 129.638 1305.03 139.275 1305.53 151.587Z" fill="#A41034"/>
<path d="M66.9908 230H64.9908V232H66.9908V230ZM66.9908 74.991V72.991H64.9908V74.991H66.9908ZM109.073 74.991H111.073V72.991H109.073V74.991ZM109.073 196.092H107.073V198.092H109.073V196.092ZM171.743 196.092H173.743V194.092H171.743V196.092ZM171.743 230V232H173.743V230H171.743ZM68.9908 230V74.991H64.9908V230H68.9908ZM66.9908 76.991H109.073V72.991H66.9908V76.991ZM107.073 74.991V196.092H111.073V74.991H107.073ZM109.073 198.092H171.743V194.092H109.073V198.092ZM169.743 196.092V230H173.743V196.092H169.743ZM171.743 228H66.9908V232H171.743V228ZM212.974 225.005L212.028 226.767L212.04 226.773L212.974 225.005ZM192.311 204.417L190.547 205.359L190.553 205.371L192.311 204.417ZM192.387 140.688L194.147 141.638L194.147 141.638L192.387 140.688ZM212.898 119.723L213.883 121.463L213.883 121.463L212.898 119.723ZM267.999 116.317L268.714 114.449L268.714 114.449L267.999 116.317ZM286.24 128.2L284.805 129.593L284.812 129.6L286.24 128.2ZM297.896 146.97L296.02 147.664L296.02 147.664L297.896 146.97ZM301.983 181.56V183.56H303.983V181.56H301.983ZM198.139 181.56H196.139V183.56H198.139V181.56ZM198.139 158.551V156.551H196.139V158.551H198.139ZM263.534 158.551V160.551H265.564L265.533 158.52L263.534 158.551ZM260.96 149.771L259.266 150.834L259.278 150.853L259.291 150.872L260.96 149.771ZM254.375 143.791L253.429 145.553L253.448 145.564L253.468 145.574L254.375 143.791ZM235.756 143.791L236.65 145.58L236.663 145.574L236.676 145.567L235.756 143.791ZM228.944 149.695L227.29 148.57L227.283 148.582L227.275 148.593L228.944 149.695ZM226.295 158.551L224.296 158.491L224.295 158.521V158.551H226.295ZM228.641 193.367L226.878 194.31L226.878 194.31L228.641 193.367ZM235.378 200.255L234.389 201.993L234.389 201.993L235.378 200.255ZM253.845 201.541L253.213 199.644L253.201 199.648L253.845 201.541ZM260.052 198.06L261.375 199.559L261.387 199.549L261.399 199.538L260.052 198.06ZM263.836 192.459V190.459H262.447L261.962 191.761L263.836 192.459ZM301.983 192.459L303.957 192.78L304.334 190.459H301.983V192.459ZM292.673 213.5L294.213 214.777L294.218 214.77L292.673 213.5ZM273.222 227.275L273.968 229.131L273.974 229.128L273.222 227.275ZM245.066 230.119C232.907 230.119 222.545 227.797 213.908 223.236L212.04 226.773C221.367 231.698 232.399 234.119 245.066 234.119V230.119ZM213.92 223.242C205.333 218.634 198.728 212.053 194.069 203.464L190.553 205.371C195.583 214.644 202.752 221.788 212.028 226.767L213.92 223.242ZM194.076 203.476C189.468 194.843 187.121 184.434 187.121 172.174H183.121C183.121 184.942 185.567 196.029 190.547 205.359L194.076 203.476ZM187.121 172.174C187.121 160.438 189.486 150.28 194.147 141.638L190.627 139.739C185.6 149.06 183.121 159.892 183.121 172.174H187.121ZM194.147 141.638C198.813 132.985 205.383 126.272 213.883 121.463L211.914 117.982C202.753 123.164 195.648 130.428 190.627 139.739L194.147 141.638ZM213.883 121.463C222.362 116.667 232.43 114.23 244.157 114.23V110.23C231.867 110.23 221.095 112.788 211.914 117.982L213.883 121.463ZM244.157 114.23C252.729 114.23 260.43 115.559 267.284 118.184L268.714 114.449C261.339 111.624 253.145 110.23 244.157 110.23V114.23ZM267.284 118.184C274.141 120.811 279.972 124.615 284.805 129.593L287.675 126.807C282.416 121.39 276.086 117.272 268.714 114.449L267.284 118.184ZM284.812 129.6C289.643 134.528 293.384 140.537 296.02 147.664L299.772 146.277C296.958 138.669 292.928 132.165 287.668 126.8L284.812 129.6ZM296.02 147.664C298.65 154.774 299.983 162.834 299.983 171.872H303.983C303.983 162.442 302.592 153.901 299.772 146.277L296.02 147.664ZM299.983 171.872V181.56H303.983V171.872H299.983ZM301.983 179.56H198.139V183.56H301.983V179.56ZM200.139 181.56V158.551H196.139V181.56H200.139ZM198.139 160.551H263.534V156.551H198.139V160.551ZM265.533 158.52C265.478 154.849 264.526 151.542 262.629 148.669L259.291 150.872C260.725 153.045 261.488 155.592 261.534 158.581L265.533 158.52ZM262.654 148.708C260.842 145.82 258.372 143.582 255.283 142.009L253.468 145.574C255.929 146.827 257.849 148.575 259.266 150.834L262.654 148.708ZM255.322 142.029C252.271 140.391 248.835 139.596 245.066 139.596V143.596C248.259 143.596 251.03 144.265 253.429 145.553L255.322 142.029ZM245.066 139.596C241.385 139.596 237.964 140.396 234.836 142.015L236.676 145.567C239.2 144.26 241.984 143.596 245.066 143.596V139.596ZM234.862 142.003C231.742 143.563 229.205 145.755 227.29 148.57L230.598 150.82C232.114 148.59 234.119 146.846 236.65 145.58L234.862 142.003ZM227.275 148.593C225.382 151.462 224.407 154.784 224.296 158.491L228.294 158.61C228.385 155.555 229.176 152.974 230.613 150.797L227.275 148.593ZM224.295 158.551V183.376H228.295V158.551H224.295ZM224.295 183.376C224.295 187.397 225.14 191.058 226.878 194.31L230.405 192.424C229.015 189.822 228.295 186.823 228.295 183.376H224.295ZM226.878 194.31C228.622 197.575 231.139 200.144 234.389 201.993L236.367 198.516C233.763 197.035 231.789 195.013 230.405 192.424L226.878 194.31ZM234.389 201.993C237.678 203.865 241.568 204.752 245.974 204.752V200.752C242.104 200.752 238.93 199.975 236.367 198.516L234.389 201.993ZM245.974 204.752C249.037 204.752 251.883 204.322 254.49 203.435L253.201 199.648C251.065 200.375 248.663 200.752 245.974 200.752V204.752ZM254.478 203.439C257.125 202.556 259.436 201.27 261.375 199.559L258.729 196.56C257.236 197.877 255.41 198.912 253.213 199.644L254.478 203.439ZM261.399 199.538C263.35 197.76 264.792 195.625 265.711 193.156L261.962 191.761C261.266 193.632 260.185 195.231 258.704 196.582L261.399 199.538ZM263.836 194.459H301.983V190.459H263.836V194.459ZM300.009 192.138C298.75 199.885 295.785 206.566 291.128 212.23L294.218 214.77C299.351 208.526 302.592 201.18 303.957 192.78L300.009 192.138ZM291.134 212.224C286.477 217.84 280.279 222.25 272.469 225.422L273.974 229.128C282.311 225.741 289.081 220.967 294.213 214.777L291.134 212.224ZM272.475 225.42C264.739 228.534 255.617 230.119 245.066 230.119V234.119C256.009 234.119 265.658 232.476 273.968 229.131L272.475 225.42ZM342.646 225.005L341.701 226.767L341.712 226.773L342.646 225.005ZM321.984 204.417L320.219 205.359L320.226 205.371L321.984 204.417ZM322.059 140.688L323.82 141.638L323.82 141.638L322.059 140.688ZM342.571 119.723L343.556 121.463L343.556 121.463L342.571 119.723ZM397.672 116.317L398.387 114.449L398.387 114.449L397.672 116.317ZM415.912 128.2L414.477 129.593L414.484 129.6L415.912 128.2ZM427.568 146.97L425.693 147.664L425.693 147.664L427.568 146.97ZM431.655 181.56V183.56H433.655V181.56H431.655ZM327.812 181.56H325.812V183.56H327.812V181.56ZM327.812 158.551V156.551H325.812V158.551H327.812ZM393.206 158.551V160.551H395.237L395.206 158.52L393.206 158.551ZM390.633 149.771L388.938 150.834L388.951 150.853L388.963 150.872L390.633 149.771ZM384.048 143.791L383.101 145.553L383.121 145.564L383.14 145.574L384.048 143.791ZM365.428 143.791L366.323 145.58L366.336 145.574L366.348 145.567L365.428 143.791ZM358.617 149.695L356.963 148.57L356.955 148.582L356.947 148.593L358.617 149.695ZM355.968 158.551L353.968 158.491L353.968 158.521V158.551H355.968ZM358.314 193.367L356.55 194.31L356.55 194.31L358.314 193.367ZM365.05 200.255L364.061 201.993L364.061 201.993L365.05 200.255ZM383.518 201.541L382.885 199.644L382.873 199.648L383.518 201.541ZM389.724 198.06L391.048 199.559L391.06 199.549L391.072 199.538L389.724 198.06ZM393.509 192.459V190.459H392.119L391.634 191.761L393.509 192.459ZM431.655 192.459L433.63 192.78L434.007 190.459H431.655V192.459ZM422.346 213.5L423.886 214.777L423.891 214.77L422.346 213.5ZM402.894 227.275L403.641 229.131L403.647 229.128L402.894 227.275ZM374.738 230.119C362.579 230.119 352.217 227.797 343.58 223.236L341.712 226.773C351.039 231.698 362.071 234.119 374.738 234.119V230.119ZM343.592 223.242C335.006 218.634 328.4 212.053 323.742 203.464L320.226 205.371C325.255 214.644 332.425 221.788 341.701 226.767L343.592 223.242ZM323.748 203.476C319.141 194.843 316.793 184.434 316.793 172.174H312.793C312.793 184.942 315.239 196.029 320.219 205.359L323.748 203.476ZM316.793 172.174C316.793 160.438 319.159 150.28 323.82 141.638L320.299 139.739C315.272 149.06 312.793 159.892 312.793 172.174H316.793ZM323.82 141.638C328.486 132.985 335.055 126.272 343.556 121.463L341.586 117.982C332.426 123.164 325.321 130.428 320.299 139.739L323.82 141.638ZM343.556 121.463C352.034 116.667 362.102 114.23 373.83 114.23V110.23C361.539 110.23 350.768 112.788 341.586 117.982L343.556 121.463ZM373.83 114.23C382.402 114.23 390.102 115.559 396.956 118.184L398.387 114.449C391.012 111.624 382.817 110.23 373.83 110.23V114.23ZM396.956 118.184C403.814 120.811 409.645 124.615 414.477 129.593L417.347 126.807C412.088 121.39 405.759 117.272 398.387 114.449L396.956 118.184ZM414.484 129.6C419.316 134.528 423.057 140.537 425.693 147.664L429.444 146.277C426.63 138.669 422.601 132.165 417.341 126.8L414.484 129.6ZM425.693 147.664C428.322 154.774 429.655 162.834 429.655 171.872H433.655C433.655 162.442 432.264 153.901 429.444 146.277L425.693 147.664ZM429.655 171.872V181.56H433.655V171.872H429.655ZM431.655 179.56H327.812V183.56H431.655V179.56ZM329.812 181.56V158.551H325.812V181.56H329.812ZM327.812 160.551H393.206V156.551H327.812V160.551ZM395.206 158.52C395.15 154.849 394.198 151.542 392.302 148.669L388.963 150.872C390.397 153.045 391.161 155.592 391.206 158.581L395.206 158.52ZM392.327 148.708C390.515 145.82 388.044 143.582 384.955 142.009L383.14 145.574C385.602 146.827 387.521 148.575 388.938 150.834L392.327 148.708ZM384.994 142.029C381.943 140.391 378.508 139.596 374.738 139.596V143.596C377.932 143.596 380.703 144.265 383.101 145.553L384.994 142.029ZM374.738 139.596C371.058 139.596 367.636 140.396 364.509 142.015L366.348 145.567C368.872 144.26 371.657 143.596 374.738 143.596V139.596ZM364.534 142.003C361.414 143.563 358.878 145.755 356.963 148.57L360.27 150.82C361.787 148.59 363.792 146.846 366.323 145.58L364.534 142.003ZM356.947 148.593C355.054 151.462 354.079 154.784 353.968 158.491L357.967 158.61C358.058 155.555 358.849 152.974 360.286 150.797L356.947 148.593ZM353.968 158.551V183.376H357.968V158.551H353.968ZM353.968 183.376C353.968 187.397 354.812 191.058 356.55 194.31L360.078 192.424C358.687 189.822 357.968 186.823 357.968 183.376H353.968ZM356.55 194.31C358.295 197.575 360.811 200.144 364.061 201.993L366.039 198.516C363.436 197.035 361.461 195.013 360.078 192.424L356.55 194.31ZM364.061 201.993C367.351 203.865 371.241 204.752 375.646 204.752V200.752C371.777 200.752 368.603 199.975 366.039 198.516L364.061 201.993ZM375.646 204.752C378.71 204.752 381.555 204.322 384.162 203.435L382.873 199.648C380.738 200.375 378.335 200.752 375.646 200.752V204.752ZM384.15 203.439C386.797 202.556 389.109 201.27 391.048 199.559L388.401 196.56C386.909 197.877 385.082 198.912 382.885 199.644L384.15 203.439ZM391.072 199.538C393.022 197.76 394.464 195.625 395.383 193.156L391.634 191.761C390.938 193.632 389.858 195.231 388.377 196.582L391.072 199.538ZM393.509 194.459H431.655V190.459H393.509V194.459ZM429.681 192.138C428.423 199.885 425.457 206.566 420.801 212.23L423.891 214.77C429.024 208.526 432.265 201.18 433.63 192.78L429.681 192.138ZM420.806 212.224C416.15 217.84 409.951 222.25 402.141 225.422L403.647 229.128C411.984 225.741 418.753 220.967 423.886 214.777L420.806 212.224ZM402.147 225.42C394.412 228.534 385.29 230.119 374.738 230.119V234.119C385.682 234.119 395.331 232.476 403.641 229.131L402.147 225.42ZM518.034 113.743H520.034V111.743H518.034V113.743ZM518.034 144.018V146.018H520.034V144.018H518.034ZM441.438 144.018H439.438V146.018H441.438V144.018ZM441.438 113.743V111.743H439.438V113.743H441.438ZM456.273 85.8901V83.8901H454.273V85.8901H456.273ZM498.053 85.8901H500.053V83.8901H498.053V85.8901ZM498.885 196.697L497.096 197.592L497.105 197.609L497.114 197.625L498.885 196.697ZM501.459 199.119L500.596 200.924L500.628 200.939L500.661 200.953L501.459 199.119ZM510.314 199.422L509.967 197.452L509.956 197.454L510.314 199.422ZM514.099 198.665L516.057 198.261L515.636 196.219L513.614 196.725L514.099 198.665ZM520.154 228.032L520.724 229.949L522.483 229.426L522.112 227.628L520.154 228.032ZM512.131 230.076L511.679 228.127L511.673 228.129L512.131 230.076ZM499.869 231.665L499.974 233.662L499.976 233.662L499.869 231.665ZM475.725 228.713L475.002 230.578L475.015 230.583L475.725 228.713ZM461.041 216.83L459.332 217.869L459.332 217.869L461.041 216.83ZM456.273 196.546L458.273 196.571L458.273 196.558V196.546H456.273ZM516.034 113.743V144.018H520.034V113.743H516.034ZM518.034 142.018H441.438V146.018H518.034V142.018ZM443.438 144.018V113.743H439.438V144.018H443.438ZM441.438 115.743H518.034V111.743H441.438V115.743ZM456.273 87.8901H498.053V83.8901H456.273V87.8901ZM496.053 85.8901V192.61H500.053V85.8901H496.053ZM496.053 192.61C496.053 194.445 496.367 196.133 497.096 197.592L500.674 195.803C500.293 195.041 500.053 194.004 500.053 192.61H496.053ZM497.114 197.625C497.885 199.097 499.077 200.197 500.596 200.924L502.322 197.315C501.519 196.931 500.996 196.417 500.657 195.769L497.114 197.625ZM500.661 200.953C502.158 201.604 503.944 201.876 505.924 201.876V197.876C504.272 197.876 503.081 197.644 502.256 197.285L500.661 200.953ZM505.924 201.876C507.338 201.876 508.926 201.707 510.672 201.39L509.956 197.454C508.372 197.742 507.033 197.876 505.924 197.876V201.876ZM510.662 201.392C512.385 201.088 513.704 200.825 514.584 200.605L513.614 196.725C512.878 196.909 511.674 197.151 509.967 197.452L510.662 201.392ZM512.14 199.069L518.195 228.436L522.112 227.628L516.057 198.261L512.14 199.069ZM519.584 226.115C517.775 226.653 515.148 227.323 511.679 228.127L512.583 232.024C516.077 231.214 518.798 230.522 520.724 229.949L519.584 226.115ZM511.673 228.129C508.389 228.902 504.426 229.42 499.763 229.668L499.976 233.662C504.799 233.406 509.01 232.865 512.589 232.023L511.673 228.129ZM499.764 229.668C490.356 230.163 482.606 229.187 476.435 226.844L475.015 230.583C481.862 233.184 490.208 234.176 499.974 233.662L499.764 229.668ZM476.448 226.848C470.304 224.467 465.777 220.775 462.751 215.792L459.332 217.869C462.865 223.684 468.128 227.914 475.002 230.578L476.448 226.848ZM462.751 215.792C459.714 210.793 458.175 204.426 458.273 196.571L454.273 196.521C454.169 204.914 455.809 212.07 459.332 217.869L462.751 215.792ZM458.273 196.546V85.8901H454.273V196.546H458.273ZM536.975 230H534.975V232H536.975V230ZM536.975 74.991V72.991H534.975V74.991H536.975ZM634.083 81.803L633.151 83.5728L633.151 83.5728L634.083 81.803ZM654.216 100.952L655.944 99.9449L655.944 99.9449L654.216 100.952ZM653.989 158.626L652.28 157.586L652.276 157.594L653.989 158.626ZM633.326 177.397L632.44 175.604L632.436 175.606L633.326 177.397ZM562.406 183.982H560.406V185.982H562.406V183.982ZM562.406 151.285V149.285H560.406V151.285H562.406ZM606.533 148.711L607.417 150.505L607.427 150.5L606.533 148.711ZM614.631 141.218L612.911 140.197L612.905 140.207L612.9 140.217L614.631 141.218ZM614.631 118.436L612.907 119.449L612.916 119.465L612.926 119.481L614.631 118.436ZM606.533 111.17L605.649 112.964L605.664 112.972L605.68 112.979L606.533 111.17ZM579.058 108.596V106.596H577.058V108.596H579.058ZM579.058 230V232H581.058V230H579.058ZM538.975 230V74.991H534.975V230H538.975ZM536.975 76.991H603.883V72.991H536.975V76.991ZM603.883 76.991C615.122 76.991 624.858 79.2077 633.151 83.5728L635.014 80.0331C626.051 75.3157 615.654 72.991 603.883 72.991V76.991ZM633.151 83.5728C641.457 87.9439 647.888 94.0664 652.488 101.959L655.944 99.9449C650.957 91.3881 643.966 84.7445 635.014 80.0331L633.151 83.5728ZM652.488 101.959C657.077 109.833 659.406 119.087 659.406 129.789H663.406C663.406 118.491 660.942 108.52 655.944 99.9449L652.488 101.959ZM659.406 129.789C659.406 140.585 657.005 149.825 652.28 157.586L655.697 159.666C660.863 151.18 663.406 141.195 663.406 129.789H659.406ZM652.276 157.594C647.588 165.376 640.994 171.375 632.44 175.604L634.212 179.19C643.42 174.638 650.601 168.125 655.702 159.658L652.276 157.594ZM632.436 175.606C623.932 179.834 613.928 181.982 602.37 181.982V185.982C614.426 185.982 625.06 183.74 634.216 179.188L632.436 175.606ZM602.37 181.982H562.406V185.982H602.37V181.982ZM564.406 183.982V151.285H560.406V183.982H564.406ZM562.406 153.285H593.893V149.285H562.406V153.285ZM593.893 153.285C599.063 153.285 603.595 152.388 607.417 150.505L605.649 146.917C602.507 148.465 598.612 149.285 593.893 149.285V153.285ZM607.427 150.5C611.288 148.57 614.288 145.808 616.363 142.219L612.9 140.217C611.24 143.087 608.842 145.32 605.638 146.922L607.427 150.5ZM616.351 142.239C618.481 138.652 619.507 134.477 619.507 129.789H615.507C615.507 133.881 614.616 137.325 612.911 140.197L616.351 142.239ZM619.507 129.789C619.507 125.058 618.484 120.894 616.336 117.391L612.926 119.481C614.614 122.235 615.507 125.64 615.507 129.789H619.507ZM616.356 117.423C614.273 113.876 611.259 111.187 607.385 109.361L605.68 112.979C608.87 114.483 611.256 116.638 612.907 119.449L616.356 117.423ZM607.417 109.376C603.595 107.493 599.063 106.596 593.893 106.596V110.596C598.612 110.596 602.507 111.416 605.649 112.964L607.417 109.376ZM593.893 106.596H579.058V110.596H593.893V106.596ZM577.058 108.596V230H581.058V108.596H577.058ZM579.058 228H536.975V232H579.058V228ZM684.964 228.183L684.163 230.016L684.172 230.02L684.182 230.024L684.964 228.183ZM671.643 216.982L669.963 218.067L669.963 218.067L671.643 216.982ZM670.054 181.635L671.854 182.505L671.858 182.498L670.054 181.635ZM679.136 170.509L680.326 172.117L680.326 172.117L679.136 170.509ZM692.684 163.924L692.125 162.004L692.12 162.006L692.684 163.924ZM709.487 160.973L709.638 162.967L709.642 162.967L709.487 160.973ZM725.154 159.156L725.508 161.125L725.518 161.123L725.528 161.121L725.154 159.156ZM733.783 156.053L734.976 157.658L734.99 157.648L735.005 157.636L733.783 156.053ZM732.95 143.413L731.808 145.055L731.808 145.055L732.95 143.413ZM714.255 143.64L715.396 145.283L715.402 145.278L714.255 143.64ZM709.79 151.587V153.587H711.528L711.77 151.866L709.79 151.587ZM671.34 151.587L669.345 151.445L669.192 153.587H671.34V151.587ZM678.077 132.06L676.417 130.944L676.415 130.947L678.077 132.06ZM695.712 117.679L696.554 119.493L696.563 119.489L695.712 117.679ZM747.028 115.181L746.458 117.098L746.471 117.102L747.028 115.181ZM763.907 123.28L762.707 124.88L762.718 124.888L763.907 123.28ZM774.503 135.39L772.73 136.315L772.736 136.327L772.742 136.338L774.503 135.39ZM778.212 230V232H780.212V230H778.212ZM739.157 230H737.157V232H739.157V230ZM739.157 213.651H741.157V211.651H739.157V213.651ZM738.249 213.651V211.651H737.05L736.485 212.708L738.249 213.651ZM729.771 224.172L728.519 222.613L728.513 222.617L728.508 222.622L729.771 224.172ZM718.494 230L717.945 228.077L717.938 228.079L718.494 230ZM727.198 203.509L726.356 201.695L726.343 201.701L727.198 203.509ZM734.086 197.833L732.458 196.67L732.458 196.67L734.086 197.833ZM736.735 179.138H738.735V176.159L735.977 177.287L736.735 179.138ZM733.177 180.424L732.568 178.52L732.556 178.523L732.545 178.527L733.177 180.424ZM729.242 181.56L728.757 179.619L728.748 179.622L728.74 179.624L729.242 181.56ZM724.852 182.544L724.472 180.58L724.46 180.582L724.852 182.544ZM720.083 183.376L719.784 181.399L719.775 181.4L720.083 183.376ZM712.136 185.874L713.1 187.626L713.107 187.622L713.115 187.618L712.136 185.874ZM707.595 190.037L705.884 189L705.88 189.008L705.875 189.016L707.595 190.037ZM709.563 202.904L710.768 201.308L710.768 201.308L709.563 202.904ZM704.643 229.817C697.442 229.817 691.157 228.641 685.746 226.343L684.182 230.024C690.175 232.57 697.009 233.817 704.643 233.817V229.817ZM685.766 226.351C680.46 224.03 676.331 220.549 673.323 215.896L669.963 218.067C673.414 223.405 678.166 227.392 684.163 230.016L685.766 226.351ZM673.323 215.896C670.356 211.307 668.799 205.356 668.799 197.908H664.799C664.799 205.901 666.471 212.665 669.963 218.067L673.323 215.896ZM668.799 197.908C668.799 191.772 669.847 186.661 671.854 182.505L668.253 180.765C665.921 185.591 664.799 191.329 664.799 197.908H668.799ZM671.858 182.498C673.893 178.239 676.715 174.79 680.326 172.117L677.946 168.902C673.787 171.981 670.554 175.95 668.249 180.773L671.858 182.498ZM680.326 172.117C684.003 169.395 688.302 167.298 693.249 165.843L692.12 162.006C686.773 163.578 682.04 165.871 677.946 168.902L680.326 172.117ZM693.244 165.845C698.294 164.374 703.756 163.412 709.638 162.967L709.336 158.978C703.209 159.442 697.469 160.448 692.125 162.004L693.244 165.845ZM709.642 162.967C716.182 162.46 721.478 161.848 725.508 161.125L724.801 157.188C720.959 157.877 715.811 158.476 709.333 158.979L709.642 162.967ZM725.528 161.121C729.601 160.348 732.84 159.245 734.976 157.658L732.59 154.447C731.194 155.485 728.681 156.451 724.781 157.191L725.528 161.121ZM735.005 157.636C737.259 155.897 738.432 153.523 738.432 150.679H734.432C734.432 152.276 733.839 153.484 732.561 154.469L735.005 157.636ZM738.432 150.679V150.376H734.432V150.679H738.432ZM738.432 150.376C738.432 146.749 736.994 143.79 734.092 141.771L731.808 145.055C733.549 146.265 734.432 147.949 734.432 150.376H738.432ZM734.092 141.771C731.352 139.865 727.945 138.991 724.019 138.991V142.991C727.36 142.991 729.906 143.732 731.808 145.055L734.092 141.771ZM724.019 138.991C719.743 138.991 716.054 139.94 713.108 142.002L715.402 145.278C717.502 143.808 720.323 142.991 724.019 142.991V138.991ZM713.115 141.997C710.093 144.094 708.375 147.295 707.809 151.308L711.77 151.866C712.214 148.715 713.473 146.618 715.396 145.283L713.115 141.997ZM709.79 149.587H671.34V153.587H709.79V149.587ZM673.335 151.73C673.815 145.017 675.943 138.841 679.739 133.172L676.415 130.947C672.237 137.187 669.875 144.029 669.345 151.445L673.335 151.73ZM679.736 133.176C683.536 127.524 689.106 122.949 696.554 119.493L694.87 115.865C686.878 119.574 680.691 124.586 676.417 130.944L679.736 133.176ZM696.563 119.489C703.94 116.017 713.265 114.23 724.625 114.23V110.23C712.874 110.23 702.924 112.075 694.86 115.869L696.563 119.489ZM724.625 114.23C732.796 114.23 740.066 115.195 746.458 117.098L747.599 113.264C740.77 111.231 733.105 110.23 724.625 110.23V114.23ZM746.471 117.102C752.892 118.965 758.29 121.567 762.707 124.88L765.107 121.68C760.239 118.029 754.385 115.233 747.586 113.261L746.471 117.102ZM762.718 124.888C767.141 128.158 770.462 131.969 772.73 136.315L776.276 134.465C773.7 129.527 769.956 125.264 765.096 121.672L762.718 124.888ZM772.742 136.338C775.052 140.628 776.212 145.296 776.212 150.376H780.212C780.212 144.658 778.899 139.335 776.264 134.442L772.742 136.338ZM776.212 150.376V230H780.212V150.376H776.212ZM778.212 228H739.157V232H778.212V228ZM741.157 230V213.651H737.157V230H741.157ZM739.157 211.651H738.249V215.651H739.157V211.651ZM736.485 212.708C734.272 216.846 731.61 220.131 728.519 222.613L731.024 225.731C734.594 222.865 737.583 219.136 740.012 214.595L736.485 212.708ZM728.508 222.622C725.447 225.118 721.933 226.937 717.945 228.077L719.043 231.923C723.532 230.641 727.536 228.575 731.035 225.722L728.508 222.622ZM717.938 228.079C713.957 229.23 709.53 229.817 704.643 229.817V233.817C709.848 233.817 714.655 233.192 719.05 231.921L717.938 228.079ZM718.267 207.477C721.731 207.477 725.001 206.76 728.053 205.317L726.343 201.701C723.845 202.882 721.161 203.477 718.267 203.477V207.477ZM728.04 205.323C731.171 203.87 733.741 201.756 735.713 198.995L732.458 196.67C730.898 198.854 728.876 200.525 726.356 201.695L728.04 205.323ZM735.713 198.995C737.759 196.131 738.735 192.705 738.735 188.826H734.735C734.735 192.011 733.944 194.59 732.458 196.67L735.713 198.995ZM738.735 188.826V179.138H734.735V188.826H738.735ZM735.977 177.287C734.921 177.719 733.784 178.13 732.568 178.52L733.787 182.329C735.093 181.911 736.329 181.465 737.492 180.989L735.977 177.287ZM732.545 178.527C731.389 178.912 730.127 179.277 728.757 179.619L729.727 183.5C731.182 183.136 732.544 182.744 733.81 182.322L732.545 178.527ZM728.74 179.624C727.423 179.965 726 180.284 724.472 180.58L725.232 184.507C726.832 184.198 728.336 183.861 729.744 183.496L728.74 179.624ZM724.46 180.582C722.979 180.879 721.421 181.151 719.784 181.399L720.383 185.354C722.076 185.097 723.697 184.814 725.244 184.505L724.46 180.582ZM719.775 181.4C716.393 181.929 713.496 182.818 711.158 184.13L713.115 187.618C714.914 186.609 717.315 185.833 720.392 185.352L719.775 181.4ZM711.172 184.121C708.903 185.369 707.106 186.984 705.884 189L709.305 191.073C710.102 189.759 711.332 188.599 713.1 187.626L711.172 184.121ZM705.875 189.016C704.719 190.962 704.157 193.136 704.157 195.486H708.157C708.157 193.799 708.553 192.34 709.315 191.058L705.875 189.016ZM704.157 195.486C704.157 199.246 705.514 202.351 708.357 204.499L710.768 201.308C709.07 200.025 708.157 198.185 708.157 195.486H704.157ZM708.357 204.499C711.052 206.535 714.406 207.477 718.267 207.477V203.477C715.063 203.477 712.615 202.703 710.768 201.308L708.357 204.499ZM839.954 164.606L837.954 164.579L837.954 164.592V164.606H839.954ZM839.954 230V232H841.954V230H839.954ZM798.175 230H796.175V232H798.175V230ZM798.175 113.743V111.743H796.175V113.743H798.175ZM837.835 113.743H839.835V111.743H837.835V113.743ZM837.835 135.844H835.835V137.844H837.835V135.844ZM839.046 135.844V137.844H840.475L840.938 136.492L839.046 135.844ZM852.367 118.512L851.273 116.837L851.267 116.841L852.367 118.512ZM896.19 117.906L895.13 119.602L895.139 119.607L895.147 119.612L896.19 117.906ZM910.344 133.346L908.561 134.252L908.566 134.263L910.344 133.346ZM915.339 155.826L913.339 155.814V155.826H915.339ZM915.339 230V232H917.339V230H915.339ZM873.56 230H871.56V232H873.56V230ZM873.56 164.606L871.56 164.588L871.56 164.597V164.606H873.56ZM869.17 151.057L867.678 152.389L867.683 152.395L867.689 152.402L869.17 151.057ZM847.901 148.408L848.905 150.138L848.916 150.132L847.901 148.408ZM842.074 154.766L843.862 155.661L843.866 155.654L843.869 155.648L842.074 154.766ZM837.954 164.606V230H841.954V164.606H837.954ZM839.954 228H798.175V232H839.954V228ZM800.175 230V113.743H796.175V230H800.175ZM798.175 115.743H837.835V111.743H798.175V115.743ZM835.835 113.743V135.844H839.835V113.743H835.835ZM837.835 137.844H839.046V133.844H837.835V137.844ZM840.938 136.492C843.321 129.534 847.488 124.12 853.467 120.182L851.267 116.841C844.53 121.279 839.817 127.421 837.154 135.196L840.938 136.492ZM853.461 120.186C859.508 116.234 866.586 114.23 874.771 114.23V110.23C865.9 110.23 858.043 112.413 851.273 116.837L853.461 120.186ZM874.771 114.23C882.679 114.23 889.439 116.045 895.13 119.602L897.25 116.21C890.832 112.198 883.312 110.23 874.771 110.23V114.23ZM895.147 119.612C900.927 123.147 905.393 128.013 908.561 134.252L912.127 132.441C908.634 125.561 903.665 120.133 897.234 116.2L895.147 119.612ZM908.566 134.263C911.779 140.497 913.388 147.664 913.34 155.814L917.339 155.838C917.392 147.135 915.67 139.315 912.122 132.43L908.566 134.263ZM913.339 155.826V230H917.339V155.826H913.339ZM915.339 228H873.56V232H915.339V228ZM875.56 230V164.606H871.56V230H875.56ZM875.56 164.623C875.613 158.523 874.057 153.466 870.651 149.713L867.689 152.402C870.236 155.208 871.607 159.184 871.56 164.588L875.56 164.623ZM870.662 149.726C867.283 145.938 862.605 144.138 856.908 144.138V148.138C861.707 148.138 865.204 149.617 867.678 152.389L870.662 149.726ZM856.908 144.138C853.175 144.138 849.812 144.964 846.887 146.684L848.916 150.132C851.138 148.825 853.78 148.138 856.908 148.138V144.138ZM846.898 146.678C844.012 148.352 841.804 150.777 840.278 153.885L843.869 155.648C845.068 153.205 846.745 151.391 848.905 150.138L846.898 146.678ZM840.285 153.872C838.757 156.927 838.008 160.519 837.954 164.579L841.954 164.632C842.002 161.023 842.665 158.055 843.862 155.661L840.285 153.872ZM955.189 225.005L954.126 226.699L954.131 226.702L955.189 225.005ZM938.538 205.25L936.727 206.099L936.731 206.107L938.538 205.25ZM938.841 137.661L937.052 136.766L937.048 136.774L938.841 137.661ZM955.795 118.36L954.782 116.635L954.777 116.639L955.795 118.36ZM992.882 115.257L992.038 117.07L992.047 117.075L992.056 117.078L992.882 115.257ZM1003.78 123.204L1002.28 124.524L1002.28 124.53L1002.29 124.536L1003.78 123.204ZM1010.44 134.028L1008.57 134.746L1009.07 136.028H1010.44V134.028ZM1011.05 134.028V136.028H1013.05V134.028H1011.05ZM1011.05 74.991V72.991H1009.05V74.991H1011.05ZM1052.83 74.991H1054.83V72.991H1052.83V74.991ZM1052.83 230V232H1054.83V230H1052.83ZM1011.35 230H1009.35V232H1011.35V230ZM1011.35 210.927H1013.35V208.927H1011.35V210.927ZM1010.44 210.927V208.927H1009.1L1008.59 210.168L1010.44 210.927ZM1003.48 221.523L1002.04 220.132L1002.04 220.132L1003.48 221.523ZM992.579 228.865L993.348 230.711L993.359 230.706L992.579 228.865ZM1003.33 196.092L1004.59 197.642L1004.59 197.64L1003.33 196.092ZM1009.68 186.555L1007.81 185.868L1007.8 185.881L1009.68 186.555ZM1009.68 157.112L1007.8 157.779L1007.8 157.793L1007.81 157.807L1009.68 157.112ZM1003.33 147.651L1002.06 149.202L1002.08 149.215L1002.09 149.227L1003.33 147.651ZM983.648 147.651L984.908 149.205L984.911 149.202L983.648 147.651ZM977.441 157.112L975.556 156.446L975.554 156.452L975.551 156.459L977.441 157.112ZM977.441 186.706L975.549 187.353L975.553 187.367L975.558 187.381L977.441 186.706ZM983.648 196.167L982.37 197.706L982.386 197.719L982.402 197.732L983.648 196.167ZM978.047 229.514C970.142 229.514 962.89 227.447 956.247 223.307L954.131 226.702C961.415 231.241 969.401 233.514 978.047 233.514V229.514ZM956.252 223.311C949.721 219.211 944.402 212.948 940.345 204.393L936.731 206.107C941.049 215.213 946.832 222.12 954.126 226.699L956.252 223.311ZM940.349 204.401C936.373 195.917 934.331 185.104 934.331 171.872H930.331C930.331 185.483 932.427 196.922 936.727 206.099L940.349 204.401ZM934.331 171.872C934.331 158.028 936.476 146.958 940.634 138.547L937.048 136.774C932.526 145.923 930.331 157.66 930.331 171.872H934.331ZM940.629 138.555C944.886 130.042 950.298 123.934 956.813 120.082L954.777 116.639C947.466 120.961 941.575 127.719 937.052 136.766L940.629 138.555ZM956.807 120.085C963.48 116.168 970.449 114.23 977.744 114.23V110.23C969.699 110.23 962.036 112.378 954.782 116.635L956.807 120.085ZM977.744 114.23C983.263 114.23 988.011 115.197 992.038 117.07L993.725 113.444C989.074 111.28 983.73 110.23 977.744 110.23V114.23ZM992.056 117.078C996.156 118.938 999.553 121.423 1002.28 124.524L1005.28 121.884C1002.16 118.325 998.286 115.512 993.708 113.436L992.056 117.078ZM1002.29 124.536C1005.06 127.643 1007.15 131.045 1008.57 134.746L1012.31 133.31C1010.7 129.139 1008.35 125.325 1005.27 121.873L1002.29 124.536ZM1010.44 136.028H1011.05V132.028H1010.44V136.028ZM1013.05 134.028V74.991H1009.05V134.028H1013.05ZM1011.05 76.991H1052.83V72.991H1011.05V76.991ZM1050.83 74.991V230H1054.83V74.991H1050.83ZM1052.83 228H1011.35V232H1052.83V228ZM1013.35 230V210.927H1009.35V230H1013.35ZM1011.35 208.927H1010.44V212.927H1011.35V208.927ZM1008.59 210.168C1007.08 213.863 1004.9 217.182 1002.04 220.132L1004.92 222.914C1008.12 219.607 1010.58 215.862 1012.29 211.686L1008.59 210.168ZM1002.04 220.132C999.266 223.001 995.863 225.302 991.799 227.023L993.359 230.706C997.873 228.794 1001.74 226.201 1004.92 222.913L1002.04 220.132ZM991.81 227.019C987.856 228.666 983.281 229.514 978.047 229.514V233.514C983.712 233.514 988.825 232.596 993.348 230.711L991.81 227.019ZM993.487 201.422C997.738 201.422 1001.48 200.18 1004.59 197.642L1002.06 194.541C999.729 196.444 996.907 197.422 993.487 197.422V201.422ZM1004.59 197.64C1007.7 195.095 1010.01 191.586 1011.57 187.229L1007.8 185.881C1006.43 189.698 1004.5 192.547 1002.06 194.544L1004.59 197.64ZM1011.56 187.242C1013.18 182.832 1013.96 177.694 1013.96 171.872H1009.96C1009.96 177.352 1009.22 182.003 1007.81 185.868L1011.56 187.242ZM1013.96 171.872C1013.96 165.954 1013.18 160.786 1011.56 156.418L1007.81 157.807C1009.22 161.613 1009.96 166.285 1009.96 171.872H1013.96ZM1011.57 156.446C1010.01 152.037 1007.7 148.532 1004.56 146.076L1002.09 149.227C1004.5 151.111 1006.43 153.913 1007.8 157.779L1011.57 156.446ZM1004.59 146.101C1001.48 143.563 997.738 142.321 993.487 142.321V146.321C996.907 146.321 999.729 147.3 1002.06 149.202L1004.59 146.101ZM993.487 142.321C989.237 142.321 985.499 143.563 982.384 146.101L984.911 149.202C987.246 147.3 990.068 146.321 993.487 146.321V142.321ZM982.388 146.098C979.359 148.556 977.109 152.055 975.556 156.446L979.327 157.779C980.701 153.895 982.588 151.086 984.908 149.205L982.388 146.098ZM975.551 156.459C974.046 160.813 973.322 165.966 973.322 171.872H977.322C977.322 166.273 978.011 161.586 979.332 157.766L975.551 156.459ZM973.322 171.872C973.322 177.778 974.046 182.953 975.549 187.353L979.334 186.06C978.011 182.185 977.322 177.469 977.322 171.872H973.322ZM975.558 187.381C977.113 191.722 979.36 195.207 982.37 197.706L984.925 194.629C982.587 192.688 980.697 189.865 979.324 186.032L975.558 187.381ZM982.402 197.732C985.517 200.213 989.248 201.422 993.487 201.422V197.422C990.056 197.422 987.228 196.462 984.894 194.603L982.402 197.732ZM1086.05 228.183L1085.25 230.016L1085.26 230.02L1085.27 230.024L1086.05 228.183ZM1072.73 216.982L1071.05 218.067L1071.05 218.067L1072.73 216.982ZM1071.14 181.635L1072.94 182.505L1072.95 182.498L1071.14 181.635ZM1080.23 170.509L1081.42 172.117L1081.42 172.117L1080.23 170.509ZM1093.77 163.924L1093.21 162.004L1093.21 162.006L1093.77 163.924ZM1110.58 160.973L1110.73 162.967L1110.73 162.967L1110.58 160.973ZM1126.24 159.156L1126.6 161.125L1126.61 161.123L1126.62 161.121L1126.24 159.156ZM1134.87 156.053L1136.07 157.658L1136.08 157.648L1136.09 157.636L1134.87 156.053ZM1134.04 143.413L1132.9 145.055L1132.9 145.055L1134.04 143.413ZM1115.34 143.64L1116.49 145.283L1116.49 145.278L1115.34 143.64ZM1110.88 151.587V153.587H1112.62L1112.86 151.866L1110.88 151.587ZM1072.43 151.587L1070.43 151.445L1070.28 153.587H1072.43V151.587ZM1079.17 132.06L1077.51 130.944L1077.5 130.947L1079.17 132.06ZM1096.8 117.679L1097.64 119.493L1097.65 119.489L1096.8 117.679ZM1148.12 115.181L1147.55 117.098L1147.56 117.102L1148.12 115.181ZM1165 123.28L1163.8 124.88L1163.81 124.888L1165 123.28ZM1175.59 135.39L1173.82 136.315L1173.83 136.327L1173.83 136.338L1175.59 135.39ZM1179.3 230V232H1181.3V230H1179.3ZM1140.25 230H1138.25V232H1140.25V230ZM1140.25 213.651H1142.25V211.651H1140.25V213.651ZM1139.34 213.651V211.651H1138.14L1137.57 212.708L1139.34 213.651ZM1130.86 224.172L1129.61 222.613L1129.6 222.617L1129.6 222.622L1130.86 224.172ZM1119.58 230L1119.03 228.077L1119.03 228.079L1119.58 230ZM1128.29 203.509L1127.45 201.695L1127.43 201.701L1128.29 203.509ZM1135.18 197.833L1133.55 196.67L1133.55 196.67L1135.18 197.833ZM1137.82 179.138H1139.82V176.159L1137.07 177.287L1137.82 179.138ZM1134.27 180.424L1133.66 178.52L1133.65 178.523L1133.63 178.527L1134.27 180.424ZM1130.33 181.56L1129.85 179.619L1129.84 179.622L1129.83 179.624L1130.33 181.56ZM1125.94 182.544L1125.56 180.58L1125.55 180.582L1125.94 182.544ZM1121.17 183.376L1120.87 181.399L1120.86 181.4L1121.17 183.376ZM1113.23 185.874L1114.19 187.626L1114.2 187.622L1114.2 187.618L1113.23 185.874ZM1108.68 190.037L1106.97 189L1106.97 189.008L1106.96 189.016L1108.68 190.037ZM1110.65 202.904L1111.86 201.308L1111.86 201.308L1110.65 202.904ZM1105.73 229.817C1098.53 229.817 1092.25 228.641 1086.84 226.343L1085.27 230.024C1091.26 232.57 1098.1 233.817 1105.73 233.817V229.817ZM1086.86 226.351C1081.55 224.03 1077.42 220.549 1074.41 215.896L1071.05 218.067C1074.5 223.405 1079.26 227.392 1085.25 230.016L1086.86 226.351ZM1074.41 215.896C1071.45 211.307 1069.89 205.356 1069.89 197.908H1065.89C1065.89 205.901 1067.56 212.665 1071.05 218.067L1074.41 215.896ZM1069.89 197.908C1069.89 191.772 1070.94 186.661 1072.94 182.505L1069.34 180.765C1067.01 185.591 1065.89 191.329 1065.89 197.908H1069.89ZM1072.95 182.498C1074.98 178.239 1077.8 174.79 1081.42 172.117L1079.04 168.902C1074.88 171.981 1071.64 175.95 1069.34 180.773L1072.95 182.498ZM1081.42 172.117C1085.09 169.395 1089.39 167.298 1094.34 165.843L1093.21 162.006C1087.86 163.578 1083.13 165.871 1079.04 168.902L1081.42 172.117ZM1094.33 165.845C1099.38 164.374 1104.85 163.412 1110.73 162.967L1110.43 158.978C1104.3 159.442 1098.56 160.448 1093.21 162.004L1094.33 165.845ZM1110.73 162.967C1117.27 162.46 1122.57 161.848 1126.6 161.125L1125.89 157.188C1122.05 157.877 1116.9 158.476 1110.42 158.979L1110.73 162.967ZM1126.62 161.121C1130.69 160.348 1133.93 159.245 1136.07 157.658L1133.68 154.447C1132.28 155.485 1129.77 156.451 1125.87 157.191L1126.62 161.121ZM1136.09 157.636C1138.35 155.897 1139.52 153.523 1139.52 150.679H1135.52C1135.52 152.276 1134.93 153.484 1133.65 154.469L1136.09 157.636ZM1139.52 150.679V150.376H1135.52V150.679H1139.52ZM1139.52 150.376C1139.52 146.749 1138.08 143.79 1135.18 141.771L1132.9 145.055C1134.64 146.265 1135.52 147.949 1135.52 150.376H1139.52ZM1135.18 141.771C1132.44 139.865 1129.03 138.991 1125.11 138.991V142.991C1128.45 142.991 1131 143.732 1132.9 145.055L1135.18 141.771ZM1125.11 138.991C1120.83 138.991 1117.14 139.94 1114.2 142.002L1116.49 145.278C1118.59 143.808 1121.41 142.991 1125.11 142.991V138.991ZM1114.2 141.997C1111.18 144.094 1109.46 147.295 1108.9 151.308L1112.86 151.866C1113.3 148.715 1114.56 146.618 1116.49 145.283L1114.2 141.997ZM1110.88 149.587H1072.43V153.587H1110.88V149.587ZM1074.42 151.73C1074.9 145.017 1077.03 138.841 1080.83 133.172L1077.5 130.947C1073.33 137.187 1070.96 144.029 1070.43 151.445L1074.42 151.73ZM1080.83 133.176C1084.63 127.524 1090.2 122.949 1097.64 119.493L1095.96 115.865C1087.97 119.574 1081.78 124.586 1077.51 130.944L1080.83 133.176ZM1097.65 119.489C1105.03 116.017 1114.35 114.23 1125.71 114.23V110.23C1113.96 110.23 1104.01 112.075 1095.95 115.869L1097.65 119.489ZM1125.71 114.23C1133.89 114.23 1141.16 115.195 1147.55 117.098L1148.69 113.264C1141.86 111.231 1134.19 110.23 1125.71 110.23V114.23ZM1147.56 117.102C1153.98 118.965 1159.38 121.567 1163.8 124.88L1166.2 121.68C1161.33 118.029 1155.47 115.233 1148.68 113.261L1147.56 117.102ZM1163.81 124.888C1168.23 128.158 1171.55 131.969 1173.82 136.315L1177.37 134.465C1174.79 129.527 1171.05 125.264 1166.19 121.672L1163.81 124.888ZM1173.83 136.338C1176.14 140.628 1177.3 145.296 1177.3 150.376H1181.3C1181.3 144.658 1179.99 139.335 1177.35 134.442L1173.83 136.338ZM1177.3 150.376V230H1181.3V150.376H1177.3ZM1179.3 228H1140.25V232H1179.3V228ZM1142.25 230V213.651H1138.25V230H1142.25ZM1140.25 211.651H1139.34V215.651H1140.25V211.651ZM1137.57 212.708C1135.36 216.846 1132.7 220.131 1129.61 222.613L1132.11 225.731C1135.68 222.865 1138.67 219.136 1141.1 214.595L1137.57 212.708ZM1129.6 222.622C1126.54 225.118 1123.02 226.937 1119.03 228.077L1120.13 231.923C1124.62 230.641 1128.63 228.575 1132.12 225.722L1129.6 222.622ZM1119.03 228.079C1115.05 229.23 1110.62 229.817 1105.73 229.817V233.817C1110.94 233.817 1115.74 233.192 1120.14 231.921L1119.03 228.079ZM1119.36 207.477C1122.82 207.477 1126.09 206.76 1129.14 205.317L1127.43 201.701C1124.93 202.882 1122.25 203.477 1119.36 203.477V207.477ZM1129.13 205.323C1132.26 203.87 1134.83 201.756 1136.8 198.995L1133.55 196.67C1131.99 198.854 1129.97 200.525 1127.45 201.695L1129.13 205.323ZM1136.8 198.995C1138.85 196.131 1139.82 192.705 1139.82 188.826H1135.82C1135.82 192.011 1135.03 194.59 1133.55 196.67L1136.8 198.995ZM1139.82 188.826V179.138H1135.82V188.826H1139.82ZM1137.07 177.287C1136.01 177.719 1134.87 178.13 1133.66 178.52L1134.88 182.329C1136.18 181.911 1137.42 181.465 1138.58 180.989L1137.07 177.287ZM1133.63 178.527C1132.48 178.912 1131.22 179.277 1129.85 179.619L1130.82 183.5C1132.27 183.136 1133.63 182.744 1134.9 182.322L1133.63 178.527ZM1129.83 179.624C1128.51 179.965 1127.09 180.284 1125.56 180.58L1126.32 184.507C1127.92 184.198 1129.43 183.861 1130.83 183.496L1129.83 179.624ZM1125.55 180.582C1124.07 180.879 1122.51 181.151 1120.87 181.399L1121.47 185.354C1123.17 185.097 1124.79 184.814 1126.33 184.505L1125.55 180.582ZM1120.86 181.4C1117.48 181.929 1114.59 182.818 1112.25 184.13L1114.2 187.618C1116 186.609 1118.4 185.833 1121.48 185.352L1120.86 181.4ZM1112.26 184.121C1109.99 185.369 1108.2 186.984 1106.97 189L1110.39 191.073C1111.19 189.759 1112.42 188.599 1114.19 187.626L1112.26 184.121ZM1106.96 189.016C1105.81 190.962 1105.25 193.136 1105.25 195.486H1109.25C1109.25 193.799 1109.64 192.34 1110.4 191.058L1106.96 189.016ZM1105.25 195.486C1105.25 199.246 1106.6 202.351 1109.45 204.499L1111.86 201.308C1110.16 200.025 1109.25 198.185 1109.25 195.486H1105.25ZM1109.45 204.499C1112.14 206.535 1115.5 207.477 1119.36 207.477V203.477C1116.15 203.477 1113.7 202.703 1111.86 201.308L1109.45 204.499ZM1305.53 151.587V153.587H1307.61L1307.53 151.505L1305.53 151.587ZM1267.08 151.587L1265.09 151.757L1265.24 153.587H1267.08V151.587ZM1264.58 145.457L1266.1 144.159L1266.1 144.159L1264.58 145.457ZM1258.91 141.521L1258.13 143.363L1258.15 143.374L1258.18 143.383L1258.91 141.521ZM1242.1 142.051L1241.19 140.269L1241.19 140.269L1242.1 142.051ZM1238.32 147.651L1240.32 147.71L1240.32 147.66L1240.32 147.61L1238.32 147.651ZM1240.51 152.42L1239.12 153.858L1239.14 153.869L1239.15 153.88L1240.51 152.42ZM1249.52 155.826L1249.16 157.794L1249.17 157.794L1249.52 155.826ZM1273.14 160.064L1273.49 158.097L1273.49 158.096L1273.14 160.064ZM1299.7 171.039L1298.37 172.535L1298.38 172.541L1298.39 172.547L1299.7 171.039ZM1308.56 191.551L1310.56 191.563L1310.56 191.551L1310.56 191.539L1308.56 191.551ZM1301.14 213.122L1299.58 211.871L1299.58 211.872L1301.14 213.122ZM1281.23 227.2L1281.96 229.062L1281.97 229.06L1281.23 227.2ZM1210.84 221.22L1209.67 222.838L1209.67 222.84L1210.84 221.22ZM1194.12 192.459V190.459H1191.91L1192.13 192.653L1194.12 192.459ZM1235.59 192.459L1237.57 192.161L1237.32 190.459H1235.59V192.459ZM1241.04 201.012L1239.95 202.684L1239.96 202.694L1239.98 202.704L1241.04 201.012ZM1262.31 201.995L1261.39 200.221L1261.38 200.225L1261.37 200.229L1262.31 201.995ZM1266.17 196.395L1268.17 196.436L1268.17 196.393L1268.17 196.349L1266.17 196.395ZM1262.84 191.096L1261.79 192.797L1261.8 192.802L1261.81 192.808L1262.84 191.096ZM1252.85 187.917L1253.2 185.948L1253.2 185.948L1252.85 187.917ZM1232.26 184.284L1232.61 182.315L1232.61 182.314L1232.26 184.284ZM1205.62 172.477L1207.02 171.051L1207.02 171.051L1205.62 172.477ZM1196.84 150.074L1198.84 150.085L1198.84 150.073L1198.84 150.061L1196.84 150.074ZM1203.2 129.562L1201.61 128.344L1201.61 128.346L1203.2 129.562ZM1221.74 116.695L1222.43 118.574L1222.44 118.572L1221.74 116.695ZM1290.17 122.674L1289 124.298L1289 124.301L1290.17 122.674ZM1305.53 149.587H1267.08V153.587H1305.53V149.587ZM1269.07 151.418C1268.84 148.655 1267.85 146.21 1266.1 144.159L1263.06 146.754C1264.24 148.134 1264.92 149.777 1265.09 151.757L1269.07 151.418ZM1266.1 144.159C1264.41 142.167 1262.23 140.674 1259.63 139.658L1258.18 143.383C1260.22 144.184 1261.83 145.315 1263.06 146.754L1266.1 144.159ZM1259.68 139.678C1257.14 138.603 1254.35 138.083 1251.34 138.083V142.083C1253.88 142.083 1256.13 142.521 1258.13 143.363L1259.68 139.678ZM1251.34 138.083C1247.51 138.083 1244.11 138.783 1241.19 140.269L1243.01 143.832C1245.24 142.694 1248 142.083 1251.34 142.083V138.083ZM1241.19 140.269C1239.69 141.036 1238.44 142.033 1237.57 143.315C1236.69 144.617 1236.29 146.102 1236.32 147.693L1240.32 147.61C1240.3 146.779 1240.5 146.119 1240.88 145.554C1241.28 144.97 1241.94 144.377 1243.01 143.832L1241.19 140.269ZM1236.32 147.593C1236.25 149.995 1237.3 152.099 1239.12 153.858L1241.9 150.982C1240.7 149.814 1240.29 148.739 1240.32 147.71L1236.32 147.593ZM1239.15 153.88C1241.17 155.769 1244.68 156.979 1249.16 157.794L1249.88 153.858C1245.48 153.058 1242.99 151.997 1241.88 150.959L1239.15 153.88ZM1249.17 157.794L1272.78 162.033L1273.49 158.096L1249.87 153.857L1249.17 157.794ZM1272.78 162.032C1284.51 164.17 1292.96 167.731 1298.37 172.535L1301.03 169.543C1294.84 164.053 1285.58 160.298 1273.49 158.097L1272.78 162.032ZM1298.39 172.547C1303.76 177.224 1306.51 183.491 1306.56 191.562L1310.56 191.539C1310.5 182.454 1307.35 175.046 1301.02 169.531L1298.39 172.547ZM1306.56 191.538C1306.51 199.391 1304.18 206.138 1299.58 211.871L1302.7 214.373C1307.89 207.894 1310.5 200.261 1310.56 191.563L1306.56 191.538ZM1299.58 211.872C1294.99 217.612 1288.66 222.116 1280.5 225.34L1281.97 229.06C1290.66 225.623 1297.61 220.741 1302.7 214.371L1299.58 211.872ZM1280.5 225.337C1272.4 228.51 1263.09 230.119 1252.55 230.119V234.119C1263.5 234.119 1273.31 232.449 1281.96 229.062L1280.5 225.337ZM1252.55 230.119C1235.03 230.119 1221.6 226.533 1212.02 219.6L1209.67 222.84C1220.17 230.44 1234.54 234.119 1252.55 234.119V230.119ZM1212.02 219.603C1202.47 212.661 1197.21 203.583 1196.11 192.265L1192.13 192.653C1193.34 205.151 1199.23 215.248 1209.67 222.838L1212.02 219.603ZM1194.12 194.459H1235.59V190.459H1194.12V194.459ZM1233.62 192.757C1234.26 196.995 1236.39 200.349 1239.95 202.684L1242.14 199.339C1239.54 197.637 1238.04 195.289 1237.57 192.161L1233.62 192.757ZM1239.98 202.704C1243.5 204.923 1247.84 205.963 1252.85 205.963V201.963C1248.38 201.963 1244.84 201.036 1242.11 199.319L1239.98 202.704ZM1252.85 205.963C1256.9 205.963 1260.4 205.273 1263.25 203.762L1261.37 200.229C1259.28 201.341 1256.47 201.963 1252.85 201.963V205.963ZM1263.23 203.77C1266.27 202.191 1268.1 199.73 1268.17 196.436L1264.17 196.353C1264.14 197.903 1263.4 199.176 1261.39 200.221L1263.23 203.77ZM1268.17 196.349C1268.1 193.338 1266.53 190.992 1263.88 189.385L1261.81 192.808C1263.49 193.825 1264.14 195.01 1264.17 196.44L1268.17 196.349ZM1263.89 189.396C1261.45 187.881 1257.82 186.769 1253.2 185.948L1252.5 189.887C1256.97 190.681 1260 191.688 1261.79 192.797L1263.89 189.396ZM1253.2 185.948L1232.61 182.315L1231.92 186.254L1252.5 189.887L1253.2 185.948ZM1232.61 182.314C1220.98 180.285 1212.53 176.467 1207.02 171.051L1204.22 173.903C1210.52 180.093 1219.84 184.146 1231.92 186.255L1232.61 182.314ZM1207.02 171.051C1201.55 165.668 1198.79 158.739 1198.84 150.085L1194.84 150.062C1194.79 159.674 1197.89 167.681 1204.22 173.903L1207.02 171.051ZM1198.84 150.061C1198.79 142.364 1200.81 135.977 1204.79 130.778L1201.61 128.346C1197.01 134.349 1194.79 141.636 1194.84 150.086L1198.84 150.061ZM1204.79 130.78C1208.85 125.485 1214.69 121.397 1222.43 118.574L1221.06 114.816C1212.75 117.847 1206.23 122.336 1201.61 128.344L1204.79 130.78ZM1222.44 118.572C1230.23 115.696 1239.55 114.23 1250.43 114.23V110.23C1239.21 110.23 1229.4 111.74 1221.05 114.819L1222.44 118.572ZM1250.43 114.23C1266.98 114.23 1279.76 117.661 1289 124.298L1291.33 121.05C1281.19 113.761 1267.48 110.23 1250.43 110.23V114.23ZM1289 124.301C1298.22 130.894 1303.05 139.952 1303.53 151.669L1307.53 151.505C1307 138.598 1301.59 128.382 1291.33 121.048L1289 124.301Z" fill="black" mask="url(#path-2-outside-1_11_13)"/>
</svg>
